<?xml version="1.0" encoding="UTF-8"?>
<svg id="uuid-13b01184-ac7b-4c08-bcc1-7a5e9a320642" data-name="Layer 1" xmlns="http://www.w3.org/2000/svg" width="16.64113in" height="16.66856in" viewBox="0 0 1198.1617 1200.13666">
  <defs>
    <style>
      .uuid-1c58501c-e3d0-4819-b71a-0bcc5ead83d9 {
        fill: #184386;
      }
    </style>
  </defs>
  <path class="uuid-1c58501c-e3d0-4819-b71a-0bcc5ead83d9" d="M580.86285,.02395c65.03546,.28455,111.67053,5.88463,157.78009,16.77608,36.12946,8.53406,70.8717,20.73333,104.76385,35.71439,43.47693,19.21775,83.76764,43.66576,121.37372,72.66024,40.7099,31.38745,77.07721,67.15317,107.94135,108.28015,13.27661,17.69113,26.25317,35.73026,37.79114,54.57559,19.49194,31.83682,36.17712,65.20609,49.18909,100.28699,11.66064,31.43716,20.46033,63.69171,27.04602,96.55396,8.77588,43.79205,12.51501,88.03479,11.13403,132.66156-1.68323,54.39984-10.98413,107.4975-26.62219,159.66388-11.6377,38.82202-27.69885,75.62195-46.96313,111.11066-29.54211,54.42297-67.02319,102.82648-111.68982,145.6662-27.59595,26.46741-57.51978,50.05579-89.69293,70.6936-50.78741,32.578-105.15375,57.34143-163.39502,73.33093-30.85828,8.4718-62.18439,14.53137-94.02039,18.17004-42.72827,4.88342-85.5202,5.5011-128.14569,.49951-26.5575-3.11609-52.82227-8.8501-79.14786-13.78589-27.94205-5.23901-54.55789-14.94946-80.8493-25.44531-30.79889-12.29541-60.27234-27.20667-88.78894-44.27734-19.36206-11.59058-37.51437-24.68445-55.19482-38.49792-13.07376-10.21436-25.82822-20.92468-37.96382-32.23083-15.44539-14.38965-30.48033-29.26526-44.99281-44.59351-8.31628-8.78381-15.57645-18.6391-22.728-28.43823-13.22928-18.12708-27.28238-35.81989-38.74535-55.03406-23.30437-39.06256-43.97684-79.59821-57.65352-123.19806-16.30579-51.98138-26.92453-105.0249-30.3272-159.59589-2.94754-47.27161,1.05427-93.92078,9.65675-140.20233,4.34119-23.35565,11.27625-46.22787,16.99942-69.32834,6.32099-25.51352,16.73231-49.52475,27.76379-73.20303,7.7861-16.71222,17.3093-32.60651,25.71437-49.04117,10.65652-20.83698,24.21544-39.77246,38.0466-58.49664,9.47318-12.82446,19.29271-25.46637,29.86119-37.38873,11.57986-13.06334,23.81895-25.6049,36.47047-37.6382,12.88084-12.2514,26.12602-24.22827,40.09903-35.19473,16.60443-13.03168,33.53714-25.85593,51.4552-36.94858,21.47186-13.29272,43.60965-25.76601,66.40555-36.60319,33.52856-15.93944,68.17715-29.49739,104.37711-38.22094C497.3161,7.3749,547.42541-.49205,580.86285,.02395ZM15.96608,600.20545c.22132,321.29785,260.65888,582.1449,581.07847,582.58228,322.80322,.44067,587.08722-261.96051,583.91205-588.84381C1177.86798,275.95276,919.08734,17.10231,597.31774,17.3434,276.50732,17.58377,15.74472,278.93064,15.96608,600.20545Z"/>
  <path class="uuid-1c58501c-e3d0-4819-b71a-0bcc5ead83d9" d="M1155.393,600.3061c.68713,306.66492-248.92627,556.15594-556.98694,556.71381-306.16422,.55444-556.534-249.0528-556.97935-555.2832C40.97863,293.62726,289.71075,43.47077,596.97583,43.00622c308.59387-.46655,557.72443,248.1656,558.41718,557.29987ZM597.84967,56.82608C297.53985,57.24976,55.05584,300.45386,55.26221,601.02478c.20542,299.18073,243.85577,542.49817,542.99981,542.25793,300.26587-.24121,543.76001-243.56799,543.31287-542.93951-.44971-301.05042-243.43311-543.94082-543.72522-543.51712Z"/>
  <path class="uuid-1c58501c-e3d0-4819-b71a-0bcc5ead83d9" d="M598.88842,199.53583c222.92505,.71185,401.80756,181.5239,399.83331,403.44385-1.98022,222.58466-183.32184,399.87909-404.23413,397.47491-221.47726-2.41028-397.28319-183.51233-396.40297-401.85364,.8896-220.66742,180.14626-399.14951,400.80379-399.06512Zm-1.86694,6.59529c-217.72125,1.23558-393.45004,178.14571-392.43399,395.07219,1.0186,217.47455,177.76627,393.56329,394.24161,392.77203,217.97784-.79675,394.48138-177.78839,393.47321-394.56122-1.01562-218.39096-178.03534-394.51591-395.28082-393.283Z"/>
  <path class="uuid-1c58501c-e3d0-4819-b71a-0bcc5ead83d9" d="M318.56695,961.50806c-4.38968-2.2619-8.41656-1.67682-11.763,1.80359-3.27237,3.40326-3.03824,7.46973-1.24631,11.50732,3.92804,8.85083,10.99341,14.43518,19.76138,17.75122,4.90341,1.85437,11.95544-1.41333,15.28903-6.13696,3.46097-4.9043,4.03394-12.54132,.11929-17.32172-8.2854-10.11804-16.91769-19.97388-25.79529-29.57904-9.47107-10.24738-19.38998-20.08069-29.10992-30.09814-.91299-.94104-1.80103-1.90631-3.15735-3.3446-3.38333,4.03156-7.13562,7.61676-12.66672,5.88959-2.22244-.69403-4.57178-2.23181-5.97363-4.06573-3.96243-5.18347-2.0929-10.49866,5.74731-16.57343-6.86447-8.74408-13.7262-17.48456-21.05722-26.82294,3.55182-2.8866,7.97418-6.48077,12.82568-10.42365,1.32501,1.56061,2.62943,2.97614,3.80023,4.49469,10.85791,14.08252,21.28647,28.52191,32.67294,42.16217,7.9646,9.54114,17.19321,18.03235,25.9245,26.92651,7.22073,7.35541,14.94397,14.26105,21.71213,22.00604,8.28824,9.48456,12.09958,20.6662,6.14932,32.69897-4.67053,9.44495-11.47684,17.61157-20.4921,23.43835-8.03104,5.19055-16.8873,8.01514-25.82608,2.98682-9.87045-5.55249-18.44971-12.93237-19.11462-25.37891-.651-12.18542,7.1572-19.54327,16.76318-24.96368,8.36063-4.71759,16.34244-2.82782,23.33478,3.42383,2.18881,1.95703,4.14832,4.18066,6.12851,6.35876,3.26892,3.59558,4.03839,7.49115,1.06259,11.6626-2.83755,3.97784-7.11667,5.86176-11.27731,3.86127-4.08768-1.96545-8.29858-5.10974-10.67484-8.86383-3.58191-5.65906-.83313-10.08698,6.86349-13.39911Z"/>
  <path class="uuid-1c58501c-e3d0-4819-b71a-0bcc5ead83d9" d="M359.19909,192.98801c-.01718,3.40218-.81848,7.04776,.14334,10.14603,1.25339,4.03766,5.33411,4.67207,9.18555,4.30849,9.70538-.91623,17.52582-5.57669,22.95236-13.43636,6.05716-8.77304-.36102-21.13077-11.01666-21.00734-19.28116,.22333-34.88901,8.93483-47.40976,23.09596-4.88287,5.52263-2.5824,10.65823,4.63251,12.37405,13.64359,3.24467,22.42847,13.91663,20.22241,25.31015-2.17688,11.2431-10.41483,16.99857-20.52386,20.40149-11.33044,3.81409-25.35336-4.40652-27.82144-16.10916-.25879-1.22714-.03479-2.55615-.03479-4.05161,9.5824,5.65347,24.06296,1.47903,29.14218-8.17178,1.92953-3.66617,1.08847-7.07751-2.46698-9.04675-3.5972-1.99243-7.52884-3.44928-11.42767-4.81654-13.41891-4.70583-16.61505-14.65392-7.15082-25.30524,13.26288-14.92641,30.35867-23.83755,49.88748-27.21286,13.68069-2.36452,27.04343,6.67255,34.9863,21.7702,5.25336,9.98547,8.29352,20.02614,1.83557,30.74405-7.8165,12.97258-27.66605,19.43459-38.65414,12.05302-8.45502-5.67993-13.02579-14.04276-11.98297-24.29027,.98407-9.67015,8.27475-14.85611,16.38406-18.56683,5.57294-2.55009,10.86304-.75963,13.573,3.75571,2.48193,4.13525,1.15201,9.10765-3.59198,13.12367-1.13544,.96118-2.35736,1.88431-3.67728,2.55287-8.03671,4.07071-13.5914,1.35625-15.35196-7.42778l-1.83444-.19318Z"/>
  <path class="uuid-1c58501c-e3d0-4819-b71a-0bcc5ead83d9" d="M477.28863,1045.53321c1.04694-4.18262,2.1701-8.50842,3.20404-12.85547,.71259-2.99609,2.54645-2.25305,4.61212-1.67822,12.00995,3.34253,23.99359,6.80054,36.08618,9.81873,10.95886,2.73535,22.02069,5.07849,33.0849,7.36353,6.82788,1.41003,12.12372-2.17126,14.38434-9.23181,2.1463-6.70325,.20837-12.5332-4.39301-14.84534,.24316,3.1106,1.25952,6.7262,.61316,10.01489-1.00018,5.08948-6.14062,8.11841-10.9209,7.47156-5.00574-.67737-9.62189-5.63367-9.7785-10.49902-.17267-5.36499,3.20026-9.65503,8.46979-10.77271,10.7912-2.28882,21.95868,4.39551,25.01208,14.97083,3.23346,11.19873-2.42914,23.49341-12.87579,27.02185-2.66638,.90051-5.88287,.47571-8.80859,.22168-3.06805-.26624-6.09052-1.05896-10.10333-1.80103,1.20508,1.86414,1.66473,2.93408,2.42798,3.70239,12.80261,12.88806,12.48395,25.75305,4.82031,38.99133-3.60339,6.22461-8.85248,11.49646-13.35577,17.2002-6.87323-1.55994-13.74652-3.12-21.48444-4.87634,3.81683-3.5238,6.89026-6.23877,9.82593-9.09509,8.1369-7.91724,11.80334-17.86414,10.80054-28.88928-1.1543-12.69153-12.57733-22.03357-25.09131-21.8385-12.68872,.19788-23.63977,9.54016-24.59497,22.40967-.70514,9.50061,.31232,19.12915,.57391,29.14539-5.2597-1.3446-11.32074-2.755-17.26422-4.55359-.96704-.2926-1.79578-2.2312-2.04108-3.53125-1.93967-10.27979-1.77463-20.55615,.9429-30.67651,1.90244-7.08472,6.28159-12.39453,12.75363-15.88892,2.13678-1.15356,4.3783-2.11304,7.90717-3.79932-5.71326-1.35034-10.12573-2.39319-14.80707-3.49963Z"/>
  <path class="uuid-1c58501c-e3d0-4819-b71a-0bcc5ead83d9" d="M700.7398,169.24204c-2.00079,1.40509-3.76642,2.90802-5.75775,3.99902-9.86609,5.4053-25.80585,1.40985-32.14893-7.96391-5.89197-8.70717-3.44824-24.18791,4.9765-31.52545,6.19617-5.39656,19.86749-5.77823,26.29468-.61046,3.60901,2.90179,4.93604,6.49995,2.92877,11.04842-1.99707,4.52521-5.44897,5.98233-10.09027,5.29683-.98657-.14571-1.96643-.35748-2.93622-.59288-9.04608-2.19566-11.04926-7.16919-5.98877-14.84444-6.33643,.94756-9.03918,8.13695-4.99591,13.28905,8.01648,10.21477,27.24005,8.69548,33.95593-3.68178-.67621,10.06963,4.12579,15.29613,12.42273,17.79787,8.56604,2.58292,15.60077-.59024,18.77661-8.44693,3.3371-8.25531,.50806-16.64096-7.73285-19.95689-6.42346-2.58466-13.35974-3.95355-20.13165-5.60155-14.02448-3.41293-28.09119-6.65201-42.91425-10.14488,1.04553-4.33684,2.14398-8.89328,3.42169-14.19295,7.38599,1.65517,14.45996,3.21751,21.52307,4.82762,19.61035,4.47032,39.2395,8.86243,58.80774,13.51033,5.02991,1.19472,9.32947,.86926,12.45428-3.51877,3.14612-4.41782,3.59045-9.20284,.88538-14.08759-.54242-.97937-1.0777-1.96269-1.8147-3.30595,7.69971,4.36331,11.34039,13.59245,9.14026,22.33597-2.45526,9.75783-9.69403,13.96649-25.1665,14.43143,.09198,.76054,.026,1.55272,.29144,2.21126,4.90985,12.1797,2.45282,23.56958-4.0282,34.31783-4.65991,7.72804-11.75031,11.73032-20.89075,11.07768-9.27686-.66237-16.57477-4.60928-20.23425-13.73814-.24115-.60164-.61877-1.14854-1.0481-1.93073Z"/>
  <path class="uuid-1c58501c-e3d0-4819-b71a-0bcc5ead83d9" d="M165.33384,560.79322c9.82219,9.91809,11.54822,20.6322,4.90762,33.05658-4.76219,8.90979-12.88452,10.90405-22.114,9.86713-7.12021-.79993-13.53914-3.23901-15.80951-10.85626-1.21809-4.08673-1.32234-8.50928-1.8862-12.78595-.39142-2.96869-.45935-6.00452-1.12595-8.90607-.77403-3.36914-2.82521-5.47064-6.70512-5.42548-3.75978,.0437-5.77808,1.80737-6.81039,5.31036-1.99095,6.75592,.45836,11.09369,7.27844,12.5271,1.1259,.23669,2.26027,.43323,3.89682,.74463-.40976,5.02124-.66931,9.96667-1.34874,14.8537-.11824,.85059-2.01314,2.08289-3.07852,2.07391-8.87427-.07452-16.91039-7.5058-16.97589-16.4248-.04329-5.89178,.60083-11.99365,2.20442-17.64172,2.10797-7.42456,8.30847-10.60999,16.4592-9.84955,6.45035,.60181,10.4782,4.67743,11.92821,12.08838,.70169,3.5863,.97571,7.32715,2.22566,10.7088,.74966,2.02808,2.99655,4.8772,4.59294,4.89172,2.3214,.02106,6.27835-1.79333,6.69121-3.50977,1.20752-5.02045,1.80759-10.50793,1.00232-15.54993-.37682-2.35944-4.36546-4.3905-7.0448-6.03723-1.5192-.93359-3.7014-.78839-5.47044-1.98065,1.75684,0,3.52437,.12488,5.26839-.0246,4.34978-.37274,8.18941-2.3595,8.92271-6.69812,1.00235-5.93042,1.70517-12.17065,.93639-18.06946-.79364-6.0896-5.54401-9.69141-11.78186-10.56818-6.28207-.883-11.05284,1.78998-14.42534,6.94769-4.46922,6.83496-4.4537,14.46271-3.42805,22.77362-3.88963-.24939-7.62933-.58807-11.37584-.70099-3.62518-.10931-4.8513-1.57904-4.41096-5.33459,.85034-7.25256,1.45396-14.55603,1.67529-21.85309,.15562-5.13141-2.39944-8.94257-7.53604-10.54907-5.09328-1.59296-9.72934-1.07983-14.20227,3.49799,2.98219-.23834,5.24481-.85791,7.34142-.5014,5.49791,.93494,8.80917,5.7674,8.17288,11.30267-.62598,5.44556-5.35468,9.70026-10.45602,9.4079-5.30377-.30396-9.17498-4.6087-9.40032-10.45312-.34797-9.02509,6.72195-18.75299,15.06107-20.72327,10.67216-2.52155,20.15123,2.02625,24.26115,11.67181,.57025,1.33832,.99202,2.73993,1.63803,4.54736,11.40923-11.01465,24.5457-9.31244,37.51027-5.24823,15.5399,4.87164,21.01881,26.37305,10.17972,38.65143-1.78535,2.0224-4.51036,3.21533-6.76788,4.76874Z"/>
  <path class="uuid-1c58501c-e3d0-4819-b71a-0bcc5ead83d9" d="M920.18109,254.68036c-4.47198-2.45291-8.34186-2.11761-11.59863,.78214-3.44513,3.06747-3.36108,7.14035-1.56891,11.05191,3.82324,8.34491,9.69989,14.78125,18.5874,17.71991,9.17987,3.03525,18.85571-4.16791,17.35992-13.63333-.88574-5.60513-3.37628-11.94287-7.23785-15.91861-15.64966-16.11243-32.00922-31.54431-48.35175-46.96776-3.54919-3.3495-8.11035-5.62665-12.58765-8.65631-1.82092,5.64336-4.95746,8.85651-10.61475,8.67221-.1344-.36232-.40161-.7112-.31641-.9061,4.80402-10.99284,4.41357-12.22482-5.69928-18.99612-6.22418-4.16754-12.34637-8.48857-18.60449-12.60361-1.88074-1.23666-4.06476-2.01212-6.71234-3.28955,2.71503-3.98227,5.64459-8.27919,8.79089-12.894,2.44763,1.60013,4.65875,3.01631,6.84033,4.47665,14.66101,9.81412,30.07458,18.69405,43.77081,29.70891,15.37775,12.36707,29.2373,26.62807,43.67755,40.15038,3.63922,3.40784,7.14899,6.9888,10.41559,10.75293,9.99585,11.5184,11.39673,25.89056,2.26898,38.04568-4.96735,6.61478-11.59973,12.5011-18.60535,16.94272-10.85962,6.88504-23.23401,3.56851-32.57178-7.08786-.54736-.62473-1.03223-1.30386-1.57086-1.93661-13.75421-16.1582-6.58209-30.62042,7.89331-38.93466,10.80475-6.20596,29.05237,2.40054,31.72601,14.63373,1.30475,5.97006-4.78125,12.31589-10.75201,10.92694-6.33813-1.4744-10.51715-5.67825-12.44836-11.78653-1.68518-5.33011,.84912-8.62354,7.90961-10.25305Z"/>
  <path class="uuid-1c58501c-e3d0-4819-b71a-0bcc5ead83d9" d="M977.78125,290.62751c3.71344-2.47601,7.94965-5.30048,12.55499-8.37115,3.71228,5.47675,7.2793,10.65094,10.75635,15.88486,11.7865,17.74197,23.62976,35.44739,35.24524,53.30087,2.88477,4.43411,5.89709,6.50833,11.51526,5.18808,5.70447-1.34055,9.1731-4.29791,10.69421-9.77271,.34436-1.23956,.46399-2.54166,.77869-4.33807,3.41589,11.79013-3.20911,21.24915-10.61108,24.41534-9.89526,4.2327-19.90442,.12119-28.52539-12.52777-1.02563,10.40536-5.85889,17.95844-13.74915,23.71759-12.37817,9.03503-27.17847,7.53174-37.0011-4.32083-5.01538-6.05176-9.12085-12.79114-9.83972-20.94244-.67773-7.68463,1.93109-11.83612,9.10016-14.79248,2.61456-1.07822,5.37555-1.84305,7.89532-3.10043,4.64795-2.31946,6.12006-5.59528,4.70911-9.69006-1.5119-4.38788-5.52997-6.8244-10.4353-5.10095-9.59534,3.37115-17.26306,9.24548-21.00122,19.20166-.34631,.9223-.52124,1.90891-1.08881,4.04288-4.07965-6.20096-7.83789-11.54391-11.09821-17.17511-.66571-1.14981,.08636-3.6597,.95374-5.0697,5.34644-8.6915,12.88153-14.85022,22.76813-17.53415,8.76312-2.37897,19.03748,3.48251,25.03265,13.63651,3.61145,6.11664,5.05029,12.26523,.66101,18.71527-1.10852,1.62894-1.73413,3.58569-2.58801,5.38885-3.68634,7.7851-3.03796,12.30148,2.69275,18.65265,3.56824,3.95462,7.79456,6.46927,13.27429,4.90332,5.57178-1.59222,9.03052-5.46429,10.37964-11.11395,1.57458-6.59344-.3512-12.79025-3.57568-18.2063-6.63184-11.13968-13.91284-21.89514-21.00684-32.75644-2.664-4.07877-5.55048-8.01227-8.49103-12.23532Z"/>
  <path class="uuid-1c58501c-e3d0-4819-b71a-0bcc5ead83d9" d="M231.61413,286.98993c3.69086,5.14093,7.74142,6.65848,12.98599,4.68515,2.89987-1.09113,5.93433-2.57138,8.11807-4.6904,9.67447-9.38794,19.19312-18.94736,28.46231-28.73441,2.30371-2.4324,4.23239-5.79086,4.88644-9.017,.44632-2.20175-.95264-5.9325-2.75082-7.11017-1.80475-1.18192-6.00745-1.09427-7.62564,.26404-5.62314,4.72006-10.58051,10.23334-15.9837,15.63757-2.8085-3.04626-6.28177-6.81354-9.88916-10.72632,6.7533-6.83572,13.55472-14.35443,21.05667-21.09332,5.09872-4.58008,7.1218-9.49643,4.86392-15.82408-2.01825-5.65613-7.36273-8.27548-15.04877-7.97319,5.15714-3.74432,14.60565-3.26823,20.64304,1.04021,8.14597,5.81316,9.67831,13.3503,5.42737,27.1205,4.86871,2.58981,10.26239,5.54477,10.56265,11.51755,.25647,5.10083-1.69876,10.31284-2.58926,15.01898,2.29373,0,5.71863-.7717,8.6055,.14706,8.13242,2.58823,11.76456,11.43054,7.81042,19.62085-8.05981,16.69452-20.90622,29.15683-36.74704,38.37537-7.60098,4.42337-14.39111,2.7453-19.35138-2.95306-3.66714-4.2128-2.84995-8.83582-1.50677-13.9765-.90186,.09274-1.55823-.01721-2.01715,.23383-8.11322,4.43826-15.38239,3.72025-21.99939-2.22382-6.53461-5.87-8.62799-13.7052-4.19772-21.65179,2.8931-5.18936,7.16589-10.03732,11.87387-13.67523,5.48138-4.23557,11.19211-2.73816,16.00635,2.44452,4.41141,4.74902,4.74265,9.57062,.76633,15.37183-1.49207,2.17688-3.17371,4.41629-5.26486,5.95193-5.14209,3.77634-10.68924,6.25647-17.09726,2.21991Zm59.26709-15.94028c-.50781-1.08557-.87677-3.22821-1.75296-3.46088-1.73535-.46082-4.46732-.61194-5.53326,.41306-6.54572,6.29431-12.88428,12.82574-18.91568,19.61249-1.0401,1.17041-.28021,3.9404-.35178,5.97153,2.14621-.1037,5.06845,.65695,6.30835-.45627,6.3895-5.73648,12.38898-11.91281,18.4097-18.04834,.86633-.8829,1.10959-2.37714,1.83563-4.03159Zm-47.31863,5.14661c-.30707-3.73804-2.24167-5.68207-5.75531-5.79141-3.4075-.10605-6.25766,3.04013-6.03061,6.54816,.23584,3.6442,2.36823,5.3898,5.92279,5.23691,3.85413-.1658,5.41995-2.66684,5.86313-5.99365Z"/>
  <path class="uuid-1c58501c-e3d0-4819-b71a-0bcc5ead83d9" d="M1079.55316,519.36298c-.57776-5.28107-1.08728-9.93805-1.64807-15.06409,4.42712-.3938,9.41931-.83777,14.96082-1.33063,1.42688,15.24249,2.78748,29.78442,4.14978,44.32617,1.05432,11.25305,1.96655,22.52209,3.23328,33.75122,.5509,4.88263,3.71509,8.19531,8.36206,9.63031,5.2865,1.63239,9.85022-.06396,13.55652-4.04175,1.00854-1.0824,1.74622-2.41718,2.54187-3.5423-.97437,8.46051-8.78235,16.07764-17.32886,16.78937-11.43616,.95239-18.54517-5.33405-22.72522-20.54901-1.6897,1.56427-3.12134,3.02728-4.69189,4.32178-11.59668,9.5589-34.18176,11.9552-44.82727-8.39362-8.24194-15.75433-9.51599-32.46783-2.66968-49.22693,8.00159-19.58704,35.19678-21.229,45.04333-7.737,.24268,.33252,.80139,.43427,2.04333,1.06647Zm3.22449,36.88965c-.61877-11.44073-1.37646-20.09149-6.70862-27.42462-5.75378-7.91333-16.78027-7.4599-21.70996,.71204-6.13342,10.1673-3.96472,32.85645,3.98596,41.70306,6.20667,6.90613,16.8031,5.98718,20.8374-2.36273,2.24243-4.64154,2.89746-10.05005,3.59521-12.62775Z"/>
  <path class="uuid-1c58501c-e3d0-4819-b71a-0bcc5ead83d9" d="M483.25994,88.50605c10.0661-.26245,19.1944,6.18503,21.59845,15.22528,2.56873,9.65964-2.42529,17.79185-15.53162,25.02666,.38141,.51564,.6449,1.13605,1.11304,1.46671,19.37549,13.68503,20.39581,36.13033,1.52057,49.97293-13.84399,10.1528-29.70911,14.03186-46.82721,9.90755-18.93793-4.56279-25.94278-30.01682-14.51962-42.45073,.19269-.20978,.17377-.614,.47617-1.8017-5.02014,1.64691-9.5867,3.14502-14.42795,4.73325-1.32693-4.40799-2.70496-8.98558-4.27234-14.19221,3.18832-1.09338,6.21344-2.25247,9.30948-3.17293,21.20044-6.30287,42.41803-12.54791,63.62457-18.83018,5.29297-1.56799,9.68073-6.91684,9.90833-11.97513,.23798-5.28851-2.96655-10.09953-8.32367-12.45195-1.18695-.52119-2.40808-.96455-3.64819-1.45753Zm-28.26743,81.31386c10.14148-1.23367,21.75266-3.36717,30.30527-12.716,6.79352-7.4259,3.16492-19.15175-6.66492-21.08075-12.55038-2.46286-24.04184,1.05708-34.30811,8.28702-6.42184,4.52248-8.3222,10.10004-6.37381,15.86916,2.06467,6.11343,7.57599,9.58142,17.04156,9.64058Z"/>
  <path class="uuid-1c58501c-e3d0-4819-b71a-0bcc5ead83d9" d="M1066.61724,461.52115c-.63306,.52686-1.04321,.69382-1.0896,.93176-3.72571,19.08133-19.34265,23.26901-34.21252,22.93039-13.90369-.31653-13.89404-.88544-18.44202-14.01019-.85876-2.47821-1.68005-4.96945-2.44958-7.2504,7.76733,.75128,15.26746,2.08868,22.76379,2.06754,13.36475-.03769,23.18909-8.98929,24.28357-21.14105,1.27856-14.19611-6.76526-25.94748-19.96875-28.74161-8.73645-1.84879-16.01318,1.92953-22.59961,7.03915-4.83655,3.75201-9.26807,8.026-14.42334,12.54321-2.10718-5.88251-4.24097-11.24088-5.84607-16.7532-.38647-1.32727,.5498-3.56534,1.60962-4.70251,6.68494-7.17279,14.63354-12.60806,23.94043-15.78677,7.82153-2.67142,15.09143-.89542,21.83521,3.5686,.8241,.5455,1.63269,1.11465,2.4668,1.64407,.09717,.06168,.3114-.06131,1.51453-.34247-1.61108-4.09656-3.17224-8.06638-4.84106-12.30975,4.32642-1.45685,9.13123-3.07477,14.34045-4.82889,3.89636,11.0567,7.68628,21.67804,11.38232,32.33197,5.23279,15.08319,10.30762,30.22177,15.63989,45.26941,1.73877,4.90723,5.50415,7.85492,10.77563,8.3877,5.48694,.55457,10.34082-2.22382,12.66321-7.08194,.71289-1.49115,1.15393-3.11227,1.63086-4.42935,1.12622,9.98596-5.82556,19.70508-15.79382,21.74731-11.30261,2.31567-20.02722-4.90826-25.17993-21.08298Z"/>
  <path class="uuid-1c58501c-e3d0-4819-b71a-0bcc5ead83d9" d="M149.87002,385.67246c9.36807-15.94095,18.44791-31.42499,27.56429-46.88745,3.55209-6.02472,7.04895-12.08936,10.8299-17.96933,2.68489-4.17538,3.51501-8.45761,.75824-12.59262-3.11963-4.67935-7.82124-6.5311-13.48785-5.44806-1.06071,.20276-2.11667,.43039-3.91891,.79852,7.36755-5.98682,16.1989-6.85565,23.29546-2.77048,8.44072,4.85892,10.88095,12.39456,8.64299,25.49625,6.30612,0,13.14803-1.43948,19.05428,.29926,12.34708,3.6348,19.6214,13.66901,25.5582,24.54694,.39032,.71515,.27783,2.06674-.14813,2.80768-3.21234,5.58804-6.56174,11.09723-10.24164,17.25583-2.00049-4.04095-3.15222-7.86139-5.47549-10.7345-4.21643-5.21426-8.43903-10.901-13.89395-14.53876-12.04158-8.0303-26.63278-3.32645-33.8532,9.86981-6.96301,12.7258-2.88596,27.86459,10.20605,33.43332,7.64531,3.25198,16.32545,4.07349,24.54362,5.97287,.94861,.21927,1.92032,.33862,3.86475,.67386-3.36658,5.646-6.36719,10.8949-9.64955,15.9613-.52309,.8074-2.32886,1.16199-3.51154,1.10468-10.49936-.50876-20.36829-3.23279-29.16959-9.12253-7.57524-5.06937-10.00008-12.88651-11.71567-21.92078-2.08386,3.57547-4.16774,7.15097-6.50333,11.15836-3.9502-2.29105-8.17787-4.74301-12.74892-7.39417Z"/>
  <path class="uuid-1c58501c-e3d0-4819-b71a-0bcc5ead83d9" d="M416.272,1071.12195c-17.04736,.60986-41.45755-15.93835-45.20697-34.13635-2.79648-13.57288,4.9863-27.6001,18.67551-30.52881,3.63843-.7782,4.93796-1.98511,4.68182-5.83594-.53125-7.98669,3.02533-12.51917,11.11856-13.7522,20.6395-3.14441,53.50418,15.78992,50.41074,43.61389-2.11826,19.05298-10.30069,33.44775-27.38269,38.78516-1.58176,.49426-3.20523,.92944-4.84198,1.15588-2.46991,.34192-4.96857,.47595-7.45499,.69836Zm21.99069-66.18066c-3.67831,13.57153-9.47415,17.68665-20.75497,15.73621-6.14664-1.06262-11.79044-3.23804-16.44305-7.71082-1.02219-.98279-3.37625-1.68738-4.57578-1.19666-7.22452,2.95471-9.99402,12.57678-5.45139,18.93958,6.50076,9.10522,15.1196,15.34509,26.13458,17.88831,11.58896,2.67603,21.20496-1.4834,26.14774-12.12537,3.7774-8.13293,3.57971-16.8114,.04349-25.12549-.89389-2.10168-2.91406-3.72424-5.10062-6.40576Zm-8.85147,1.31482c.04163-4.54248-4.40662-9.12146-8.83356-9.0929-5.67621,.03662-10.09659,3.51001-10.22055,8.03088-.1225,4.46997,4.78094,8.81055,10.15863,8.99255,4.97772,.16858,8.85294-3.28638,8.89548-7.93054Z"/>
  <path class="uuid-1c58501c-e3d0-4819-b71a-0bcc5ead83d9" d="M892.53015,1007.91736c-1.04291,20.9989-17.61572,37.21777-37.59589,35.93311-21.77777-1.40027-36.61987-17.27222-36.26495-37.62134,.37604-21.56091,20.25177-36.5686,38.09741-35.90228,19.94574,.74469,36.71289,18.47284,35.76343,37.59052Zm-62.56323-7.71167c-.12378,12.03101,8.55536,21.04138,20.362,21.13892,11.63245,.09631,20.57251-8.71802,20.68036-20.38928,.10767-11.65649-8.72675-20.85327-20.1499-20.97626-11.16248-.12018-20.77887,9.18976-20.89246,20.22662Z"/>
  <path class="uuid-1c58501c-e3d0-4819-b71a-0bcc5ead83d9" d="M860.60754,210.39064c19.74298-.82237,31.52362,6.89192,33.34235,21.57759,1.34021,10.82205-6.73254,21.89481-17.46362,23.95346-15.06543,2.8902-25.7243-5.11337-30.72705-23.0726-19.31848,1.42511-31.48901-6.17685-33.25018-20.76886-1.45123-12.02313,6.25031-22.43008,18.23883-24.6459,13.98474-2.58481,25.73572,6.36511,29.85968,22.95631Zm-18.83997,1.95552c5.20795-.04996,8.80133-3.68555,8.65863-8.76038-.14545-5.17456-4.05157-8.9846-9.2605-9.03268-5.11932-.04727-8.99805,3.64899-8.98248,8.55998,.01654,5.22758,4.22778,9.28447,9.58435,9.23308Zm40.93591,13.71353c.09039-5.58682-3.6684-9.66879-9.02661-9.80276-5.28589-.13211-8.7923,3.30792-8.79327,8.62695-.00104,5.61249,3.77667,9.45505,9.29187,9.45114,5.19696-.00366,8.44519-3.15567,8.52802-8.27533Z"/>
  <path class="uuid-1c58501c-e3d0-4819-b71a-0bcc5ead83d9" d="M196.15272,454.10199c-.33234,20.6712-16.76907,37.18683-36.70944,36.8855-17.83476-.26947-33.11284-16.35602-32.93144-34.67398,.20486-20.69113,17.12672-38.36777,36.43214-38.0571,18.69156,.30078,33.52283,16.30972,33.20874,35.84558Zm-61.84233-.37512c.07668,11.16074,8.64836,19.75989,19.56357,19.62616,10.929-.13385,19.88506-9.75342,19.96335-21.44232,.07106-10.60855-8.75511-19.69861-19.15076-19.72327-11.23512-.02667-20.45735,9.72208-20.37616,21.53943Z"/>
  <path class="uuid-1c58501c-e3d0-4819-b71a-0bcc5ead83d9" d="M274.92712,919.1001c2.02112-1.60645,3.80389-3.02344,5.52963-4.39508,11.45804,6.63196,14.48566,20.50104,6.93192,30.98804-10.75394,14.93018-28.92639,17.27692-42.40472,4.68506-5.20792-4.86548-9.70535-11.04053-12.83701-17.44501-4.2356-8.66199-.22229-16.18433,8.69223-20.19708,3.40802-1.534,6.60745-3.70471,9.56665-6.01477,3.06656-2.39398,3.42804-6.26904,1.26498-8.92609-1.54016-1.89215-5.14282-3.25958-7.64487-3.01532-11.01639,1.07544-22.23062,12.72467-24.67587,26.02588-4.34097-5.57825-8.63176-10.13403-11.59503-15.43231-1.00386-1.79486,.70537-5.90833,2.28276-8.1994,5.31555-7.72052,12.5443-13.31323,21.48274-16.29962,2.41763-.80774,5.31342-.8407,7.87332-.45557,12.98343,1.95337,22.70245,18.45844,18.35117,30.81335-.71622,2.03363-1.43723,4.08716-1.88846,6.1889-1.77512,8.26837,4.52554,18.73218,12.65561,21.17389,4.25937,1.27924,9.5112-.74646,12.28046-4.67212,2.94202-4.17047,.89545-7.57025-1.69757-10.81116-1.02454-1.28052-2.37085-2.30359-4.16794-4.0116Z"/>
  <path class="uuid-1c58501c-e3d0-4819-b71a-0bcc5ead83d9" d="M941.18566,921.08924c-6.46802-5.0683-6.54004-5.74548-1.70746-11.18225,9.28064-10.44086,22.46338-10.26788,33.8017,.44373,9.02509,8.52625,11.11371,20.90326,5.216,32.52332-3.85736,7.59991-9.71436,13.52533-17.01904,17.81769-8.56238,5.03137-15.91101,2.89594-21.4787-5.33875-2.17474-3.21649-4.72681-6.66718-7.96271-8.50201-2.10193-1.19177-6.52417-.61597-8.46777,.95184-1.64008,1.32288-2.41199,5.7298-1.49103,7.88336,4.80273,11.23065,13.75195,17.52502,25.76483,19.49945,.75989,.12482,1.54364,.10449,3.23309,.20752-4.38855,4.84918-8.20178,9.17633-12.17859,13.34735-.67633,.70935-2.0506,1.0426-3.10797,1.05469-10.79071,.12354-27.65759-16.97296-27.43024-27.71295,.25201-11.9035,13.02277-23.72845,24.84601-23.02643,2.49268,.14807,5.03284-.04175,7.47766,.36554,9.26453,1.54321,14.83777-3.30707,18.90985-10.72345,3.1571-5.75,1.23737-12.19122-4.40826-15.41736-4.27313-2.44183-8.70605-.68817-12.46155,4.96802-.52808,.79535-.91602,1.68365-1.53583,2.8407Z"/>
  <path class="uuid-1c58501c-e3d0-4819-b71a-0bcc5ead83d9" d="M751.42272,1051.4856c-3.04712-8.00964-2.84845-8.41919,4.82269-10.71448,8.42133-2.52002,16.92169,.05115,22.47076,6.797,14.09113,17.13013,5.99353,40.02295-16.47467,46.41418-6.41467,1.82458-12.92603,3.34399-19.56146,1.02502-6.04987-2.11438-8.81073-6.6521-9.2951-12.87512-.2702-3.47107-.37616-7.03418-1.28583-10.35583-1.08783-3.97192-3.93744-6.83167-8.34882-6.49768-4.49493,.34033-6.42889,3.53284-6.93744,7.83545-1.17151,9.91357,5.08929,22.65784,15.40057,30.31226-5.84192,1.90918-11.21259,3.9834-16.76483,5.27893-1.60699,.375-4.27179-.99951-5.53546-2.39929-7.09631-7.86047-10.79755-17.51282-10.16589-27.83582,.86023-14.05859,21.95435-23.7821,34.15546-16.41138,2.27643,1.37524,4.56573,2.79541,6.59973,4.49365,7.15533,5.97437,14.55176,5.48462,22.27026,1.26428,5.81042-3.17712,7.9126-9.39587,5.013-15.28613-2.33325-4.73975-6.92157-5.63171-13.41455-2.58911-.89661,.42017-1.75708,.91724-2.94843,1.54407Z"/>
  <path class="uuid-1c58501c-e3d0-4819-b71a-0bcc5ead83d9" d="M891.55395,956.42261c-3.53577-3.19067-7.46289-6.73456-11.80347-10.65149,6.66809-7.50464,13.17847-14.75446,19.60297-22.07977,10.63824-12.12994,21.26862-24.26758,31.78162-36.50568,1.81091-2.10809,3.45532-4.56885,4.41858-7.14972,1.72229-4.61401,1.54889-9.18561-2.45441-12.85651-4.90527-4.4978-9.94525-5.49213-16.10205-2.72662,1.55811,.33398,2.52515,.58417,3.50677,.74469,6.20483,1.01489,10.40234,6.81897,9.11725,12.63257-1.32678,6.00238-7.6524,9.71515-13.41644,7.87488-5.91278-1.88782-9.11652-8.70514-6.771-14.40826,4.29657-10.44696,15.21503-15.65778,25.73267-12.28088,11.57001,3.71478,18.57239,14.67487,15.58673,25.4892-1.01373,3.67163-3.59705,7.06818-6.01105,10.16309-5.50122,7.05273-11.34161,13.84106-17.01056,20.69604,8.08862,8.08582,9.17096,12.85223,4.33875,17.90259-4.81891,5.03644-10.5791,4.33331-17.70209-2.60223-7.5376,8.51019-15.05066,16.99274-22.81427,25.75812Z"/>
  <path class="uuid-1c58501c-e3d0-4819-b71a-0bcc5ead83d9" d="M741.94946,1040.09705c3.69122,10.40942,2.44934,15.27917-4.0647,17.34753-7.02173,2.22961-11.81458-1.30347-14.30188-11.20923-10.79285,3.53589-21.52924,7.05322-32.63055,10.69019-1.58624-4.2373-3.47589-9.2854-5.59711-14.95203,5.51984-1.87964,10.61102-3.68384,15.74713-5.34973,19.13452-6.2063,38.29297-12.33862,57.42358-18.55664,9.15979-2.97717,12.38214-6.93445,12.20801-14.66541-.14801-6.57239-4.05756-10.61719-12.73798-13.19189-.29572-.08765-.56622-.26025-.84595-.39868,7.05066-2.12915,16.57446,1.00183,21.08801,6.92664,5.76434,7.56653,6.73944,17.81482,1.32166,25.12451-2.59937,3.50708-6.60864,6.54858-10.63263,8.30139-8.77472,3.82202-17.96783,6.68372-26.9776,9.93335Z"/>
  <path class="uuid-1c58501c-e3d0-4819-b71a-0bcc5ead83d9" d="M762.62561,162.72831c.46423,10.50366,6.40137,16.54568,18.78003,20.45087,10.79938,3.40697,18.60425-.9579,20.98669-11.73679,2.33148-10.54819-7.45728-20.26735-19.42737-19.26184-1.45593,.12228-2.89832,.40652-5.09454,.72366,2.17645-5.0034,3.84882-9.64882,6.25702-13.87497,.68311-1.19881,3.65826-1.92424,5.33325-1.59598,16.29944,3.19455,24.89825,17.11971,20.35687,34.35277-3.125,11.85866-8.66498,22.69562-19.66449,29.63422-11.00397,6.94141-22.09778,2.94724-30.92383-5.10034-7.15833-6.52686-8.08588-20.29314-2.48486-28.69656,1.18237-1.77394,3.38519-2.86778,5.88123-4.89503Z"/>
  <path class="uuid-1c58501c-e3d0-4819-b71a-0bcc5ead83d9" d="M525.44824,126.03395c-.71191-5.62643-1.56342-10.22502-1.71472-14.84653-.04553-1.39198,1.5434-3.5743,2.91235-4.16124,12.96692-5.55978,27.61157-.3913,33.45789,12.34268,5.58044,12.1548,6.8551,24.96938,2.50604,37.90002-4.24396,12.61812-15.06879,18.12869-30.1546,15.62303-9.39984-1.56126-17.71802-12.31995-17.58899-23.27278,.02692-2.28633,1.47882-4.55588,2.64539-7.89645,3.32404,8.20157,9.62616,9.50623,16.05402,9.37402,5.05701-.104,10.29529-1.01677,15.07556-2.66507,6.8819-2.37302,9.49786-8.4084,8.09833-16.20508-1.53961-8.57677-5.5946-12.48874-13.349-12.90921-6.58856-.35725-12.50452,1.27663-17.94226,6.7166Z"/>
  <path class="uuid-1c58501c-e3d0-4819-b71a-0bcc5ead83d9" d="M111.94165,664.7901c1.05522-2.88995,1.84047-5.04059,2.86752-7.85339,3.7562,1.70941,7.25031,3.29956,11.16534,5.08124-.18994-4.34058-.35425-8.09515-.5352-12.23016h7.15083v12.47919c4.10811-1.63086,7.90552-3.13837,12.08878-4.79901,.70793,2.78107,1.30225,5.11572,2.00171,7.86346-3.94284,.94153-7.58014,1.81006-12.03136,2.87299,2.81076,3.46667,5.25298,6.47882,8.02585,9.8988-2.20338,1.51044-4.17929,2.86493-6.54332,4.48541-2.26546-3.46753-4.3212-6.61407-6.87044-10.51599-2.5195,3.78784-4.73689,7.12146-7.23946,10.88385-2.26941-1.82355-4.27917-3.43842-6.54388-5.25818,2.90221-3.12329,5.58751-6.01312,8.79472-9.46466-4.24901-1.18658-7.96289-2.22369-12.3311-3.44354Z"/>
  <path class="uuid-1c58501c-e3d0-4819-b71a-0bcc5ead83d9" d="M1079.04534,663.65027c3.08093,3.63507,5.51709,6.50934,8.38049,9.8877-2.20483,1.53857-4.29626,2.99792-6.60449,4.60864-2.30371-3.57526-4.42664-6.87-6.95032-10.78662-2.57214,4.00146-4.76526,7.41321-7.13989,11.10748-2.21216-1.74475-4.1449-3.26917-6.59155-5.19897,2.83936-3.10864,5.54089-6.06647,8.75659-9.58716-4.19922-1.18872-7.77295-2.20032-11.91541-3.37292,.69312-2.50848,1.33069-4.81647,2.20715-7.98914,3.77869,1.70874,7.26147,3.28357,11.39832,5.15424-.19397-4.349-.36499-8.1861-.55298-12.40137h7.96436c-.4165,4.26892-.79395,8.13879-1.26245,12.94012,4.52637-1.82874,8.26782-3.34039,12.35681-4.99243,.79004,2.38519,1.50415,4.54095,2.54907,7.69556-3.9917,.93011-7.79529,1.81635-12.5957,2.93488Z"/>
  <path class="uuid-1c58501c-e3d0-4819-b71a-0bcc5ead83d9" d="M1009.88739,935.20081c.4895,6.04871-3.58264,11.51636-8.67847,11.65222-5.81348,.15497-12.76355-5.78577-12.52344-11.30878,.35278-8.11377,4.16492-14.68298,11.07544-18.89856,6.04956-3.69031,14.18665-.6051,17.11023,5.89429,2.08997,4.64606-1.14685,10.07324-7.00085,11.75018-.13086,.03748-.34973,.1994-.33618,.23969,.09216,.2771,.23547,.53717,.3623,.80273l-.00903-.13177Zm-1.39441-9.73944c.13867-5.10931-3.44226-7.36353-7.78503-6.18921-4.98779,1.34882-9.80676,9.90704-8.36218,14.85077,1.08618,3.71716,6.04089,6.33704,8.04395,3.82806,3.29517-4.1272,4.81445-9.50916,8.10327-12.48962Z"/>
  <path class="uuid-1c58501c-e3d0-4819-b71a-0bcc5ead83d9" d="M1009.89642,935.33258c1.78174-.18463,3.59448-.64478,5.33374-.45007,1.03528,.11597,2.80457,1.32727,2.75781,1.93103-.1123,1.45197-.7865,3.22052-1.85889,4.09668-.59814,.48865-2.84448-.16888-3.63684-.99347-1.19153-1.23993-1.75916-3.07935-2.59851-4.68994-.00635-.026,.00269,.10577,.00269,.10577Z"/>
  <path class="uuid-1c58501c-e3d0-4819-b71a-0bcc5ead83d9" d="M596.70849,978.93256c-208.25174-.70032-377.84311-171.05371-377.20566-378.90063,.64496-210.28928,170.59796-379.68185,380.18442-378.93079,209.53326,.75089,378.69733,171.38446,377.63666,380.91711-1.05847,209.08856-171.2431,377.61835-380.61542,376.91431Zm1.41803-4.69897c206.54871-.15485,374.47534-167.48309,374.43158-373.09741-.04425-207.80191-167.20416-375.32794-374.31158-375.27521-205.63956,.05237-373.61389,166.46609-373.86197,373.06927-.24948,207.75,167.24731,375.45819,373.74197,375.30334Z"/>
  <path class="uuid-1c58501c-e3d0-4819-b71a-0bcc5ead83d9" d="M948.03564,600.34864c-.77209,192.6748-155.56049,348.57336-348.91315,349.28503-192.24808,.70752-349.8074-156.10168-350.22021-347.9303-.41653-193.55835,155.5954-350.86713,348.36261-351.25839,193.66211-.39307,350.31061,155.86819,350.77075,349.90366Zm-349.47363,344.40308c188.56061,.487,343.84613-153.5741,344.56708-341.85016,.73364-191.59186-152.47949-346.94949-342.79919-347.59732-191.48175-.65176-345.96045,152.85831-346.50937,344.33676-.54568,190.34833,153.55798,344.61707,344.74149,345.11072Z"/>
  <path class="uuid-1c58501c-e3d0-4819-b71a-0bcc5ead83d9" d="M770.79229,786.54401c-1.89496-17.45959-3.17041-34.54974-5.75616-51.43921-2.2962-14.99786-6.63068-29.45984-15.40063-42.35864-12.55231-18.46191-29.67889-29.15515-51.67688-32.24548-1.80786-.25391-3.65948-.50726-5.46643-.38885-3.11652,.2041-4.47693,1.01282-3.55792,5.06598,1.64209,7.2428,1.70587,14.82892,3.03448,22.16199,1.0318,5.69501,2.72223,11.31543,4.64606,16.78394,.8692,2.47083,3.01709,4.49182,4.58484,6.71686l1.79865-.03333c2.41528-6.41205,4.83063-12.8241,7.71228-20.47394,.53027,6.07501,.95532,10.94434,1.4978,17.15869,6.7854-6.26581,12.46887-11.5141,18.15234-16.76239l1.68842,1.41998c-2.86127,5.21063-5.72253,10.42133-8.89032,16.19012,7.56763-.49866,14.70081-1.79376,21.97614,4.10736-7.92224,1.86163-14.55859,3.42102-22.29724,5.2395,6.28424,4.00739,11.2168,7.91254,13.87213,15.17188-2.85004-1.21185-4.75397-2.0202-6.65686-2.83087-9.20361-3.92102-17.55029-1.93585-25.31561,3.74762-2.41565,1.76801-4.63245,3.81104-7.07141,5.54358-6.763,4.80396-13.71954,2.63306-16.82758-5.17157-3.51062-8.81512-6.63641-17.80908-10.64038-26.39368-3.00049-6.43317-6.92615-12.47314-10.84113-18.42419-1.77808-2.70282-4.12354-2.99603-6.03174,.58374-12.42773,23.31421-16.93182,47.61444-8.74017,73.28522,5.59808,17.54333,18.57532,28.95007,33.89563,37.76306,7.73633,4.45032,16.05829,8.06445,24.46124,11.09906,4.36462,1.57623,9.47595,1.14655,14.25983,1.48273,4.97052,.34943,7.18048,3.31915,4.51587,7.23572-7.42157,10.9082-15.24774,21.5368-28.08838,26.86841-8.03265,3.33521-16.1463,3.32953-24.31653,.58289-.33368,.71405-.7218,1.15363-.71552,1.58752,.21942,15.23938-6.1153,25.36298-20.66925,30.6236-6.76666,2.4458-14.19727,3.2583-21.40784,4.17389-2.95752,.37555-4.87329,.73212-5.97449,3.8089-1.93689,5.41113-6.38171,8.68994-11.45984,10.46759-12.89532,4.51416-25.93707,4.89032-38.1922-1.87512-3.7113-2.04883-6.21411-6.2226-9.44562-9.23505-1.35693-1.26495-3.05493-2.57642-4.79376-2.94672-6.95599-1.48145-14.33203-1.65497-20.92468-4.04474-15.66931-5.68024-21.91229-15.36188-22.07495-32.31122-2.57898,.52472-5.05872,1.2182-7.5849,1.51166-13.55621,1.57526-23.76758-5.03192-32.73584-14.0141-3.85391-3.8598-7.26648-8.27649-10.21799-12.86566-1.23581-1.92151-1.57544-5.27417-.75137-7.35352,.51614-1.30237,3.91937-1.6485,6.09573-2.06854,5.83676-1.1264,11.97189-1.30536,17.51749-3.2229,13.47137-4.6579,25.64337-11.76221,36.39563-21.29663,16.87952-14.96729,22.94318-33.97626,20.49695-55.77759-1.63971-14.6131-5.65863-28.73657-12.75421-41.79999-.63495-1.16907-1.3277-2.31055-2.06104-3.42029-.25751-.38965-.71771-.64545-1.33862-1.18073-5.77783,2.35571-8.16803,7.81561-10.28668,12.78925-4.6225,10.85193-8.57678,22.00281-12.45477,33.15295-3.12012,8.97119-12.99615,12.65381-19.20111,5.84094-11.3053-12.41272-23.64551-13.4563-38.86044-5.18311,2.3345-7.90631,7.35312-11.80621,14.4584-15.95593-7.81155-1.87262-14.32272-3.43353-21.76831-5.21844,6.95312-5.4007,13.84375-4.87634,22.19568-3.8382-3.52133-6.16925-6.46948-11.33429-10.05939-17.62366,8.60019,3.46289,12.97528,10.09613,19.50632,16.46442,1.07327-6.14081,1.95624-11.19287,3.09775-17.72424,3.13177,7.87134,5.74219,14.43231,8.3526,20.99329,.56671,.065,1.13336,.13,1.70007,.19501,1.54138-2.77838,3.84259-5.39069,4.49255-8.36389,2.80182-12.81702,5.22351-25.72223,7.41113-38.65839,.17035-1.0072-2.52057-3.5509-3.90088-3.56549-3.76923-.03992-7.6123,.61902-11.31433,1.48102-32.55316,7.57935-51.81931,28.21423-59.18643,60.48785-4.54996,19.93213-5.83261,40.18066-6.02124,60.54291-.01044,1.1275-.12088,2.25409-.26251,4.75378-5.21988-4.12006-9.88321-7.42596-14.12158-11.20801-24.91232-22.2298-42.01022-49.73608-53.50717-80.80914-15.5661-42.07098-20.28275-85.23724-9.52261-129.08942,9.47449-38.61255,31.97-68.13611,67.17105-87.08636,21.83685-11.75577,45.32501-13.50284,69.47601-8.65479,13.1582,2.6413,25.77679,6.73578,37.51495,13.27344,3.12122,1.7384,4.65186,1.37915,6.63159-1.83203,5.23486-8.49103,11.20422-16.52942,16.43298-25.02386,1.48102-2.40604,2.44446-5.96896,1.90002-8.64648-3.34119-16.43338-13.52338-28.67569-25.58899-39.52942-8.3642-7.52405-17.7738-13.42593-28.46033-17.21451-3.79047-1.34381-6.25409-.93936-8.70703,2.82639-11.4906,17.64035-28.11826,25.12537-48.55579,20.8132-16.42743-3.46603-28.26508,3.23044-38.74542,13.93518-5.46835,5.58542-9.55722,12.52142-14.37973,18.99588-4.366-18.79099-.1944-35.37323,14.15878-48.48563,7.45386-6.80954,14.1142-12.83511,16.75317-23.71069,1.83124-7.54694,9.47876-13.64557,14.36118-20.5097,1.64941-2.31885,3.02176-4.90482,4.10715-7.53912,1.82889-4.43881,3.27832-9.03238,4.98151-13.52515,1.24191-3.27597,3.49265-3.90967,6.18893-1.73563,3.61423,2.91415,7.37042,5.74985,10.49713,9.14316,3.03848,3.29758,6.22275,4.68475,10.78156,4.9119,31.17697,1.55322,59.43887,11.14932,83.23758,31.9053,16.25305,14.17511,26.74597,32.11044,32.80829,52.7168,.51129,1.73792,1.03571,3.47195,1.4881,4.98715h39.5506c.62585-1.83972,1.47217-4.32031,2.31372-6.80255,12.91382-38.09213,39.2583-62.47708,76.88733-75.35327,13.80847-4.7251,28.01324-7.12683,42.5849-7.81573,2.22607-.10526,4.56561-1.92337,6.49225-3.41486,4.31268-3.33859,8.30817-7.08636,12.61365-10.435,2.21832-1.72531,4.24683-1.49265,5.34906,1.65024,1.7594,5.017,3.53772,10.04102,5.64398,14.91693,1.01056,2.33939,2.48749,4.64709,4.27661,6.44955,6.02844,6.07306,11.64594,12.37082,14.44421,20.66916,.37146,1.10162,.99677,2.30704,.84119,3.36697-1.2326,8.39429,4.47736,11.97064,10.20392,16.19348,16.57587,12.22333,23.89264,35.06931,17.10046,52.70309-3.87878-9.46832-8.74158-18.13568-16.89008-23.8577-6.02649-4.2319-12.98096-7.28259-19.82275-10.13928-2.48816-1.03894-5.89948-.31647-8.79938,.15619-14.6391,2.38638-29.1134,3.29987-41.38342-7.05487-4.77106-4.02634-8.72333-9.0842-12.71521-13.94583-1.88574-2.29672-3.36536-3.62106-6.58014-2.53912-25.84125,8.69708-44.72113,25.07172-55.74585,50.17194-2.8418,6.46991-2.88574,11.96182,2.61755,17.98685,6.32538,6.92517,10.89996,15.44885,16.24194,23.27344,.63867,.93542,1.32123,1.84088,1.85535,2.58246,8.03992-3.4317,15.6239-7.30969,23.61481-9.96106,25.33624-8.40643,51.01917-10.3428,76.3949-.58081,29.24731,11.2514,50.54205,31.69,64.70532,59.46027,20.65167,40.49231,23.44995,83.16418,14.31091,127.00793-6.46417,31.01166-18.61206,59.68872-37.02167,85.58221-10.0058,14.07349-21.75916,26.49109-35.57733,36.89966-1.43842,1.08344-2.96991,2.04315-4.23059,2.90466Zm-150.00342-186.57092c8.05573-17.17188,9.84167-35.43713,9.78271-54.12732,8.11322,10.7558,9.42749,23.05023,9.75592,35.59442,.33118,12.65137-1.47681,25.00067-5.40161,37.13312,13.51904-10.85345,15.05096-26.57904,17.73572-42.0885,8.08307,17.7948,3.42938,36.26709,3.59241,54.69446,2.5849-6.19476,4.83594-12.49921,6.00745-18.99823,3.59564-19.94745,4.14789-40.05353,1.93982-60.21344-1.45703-13.30261-4.09839-26.33136-9.92731-38.48724-1.66284-3.46777-3.97797-6.6228-6.21826-10.28821q-5.11566,8.40607-17.70343,2.45087c-6.58167,7.28497-9.78455,7.49817-17.49329,1.30432-.79767-.64093-2.35278-1.47559-2.88007-1.14423-6.91058,4.34314-12.97449,1.9903-18.83582-2.44128-4.09247,4.93646-9.25439,5.96484-14.56293,3.73175-3.552-1.4942-5.69568-1.48877-8.65393,1.30994-4.5918,4.34418-9.1839,3.68286-13.43085-1.03375-.64453-.71588-1.02948-1.66541-1.36646-2.22693q-13.37677,6.33984-18.1297-.9762c-19.86157,15.05524-24.48041,113.25989-5.51196,127.51349-.26996-2.18188-.58496-3.95703-.69543-5.74475-.78949-12.78021-1.72748-25.55621-2.18341-38.349-.13855-3.88617,.29596-8.12726,3.9715-11.30676,4.65869,26.04993,9.18854,37.13513,17.33167,42.17572-7.19104-24.94763-9.30298-49.32996,5.38062-72.42102-.59869,18.6181,1.67639,36.64911,8.67511,55.45911,1.28668-12.18286,2.17596-22.91223,3.6134-33.56763,1.44812-10.73474,2.71625-21.60168,8.66486-31.14514,.38336,.97559,.33459,1.86261,.22974,2.74298-1.86029,15.61761-2.44183,31.22797,.84442,46.73181,.6366,3.00342,2.12488,5.82642,3.22034,8.7326l1.45514-.37445c.42932-6.39709,.66089-12.81494,1.33203-19.18658,1.14966-10.91486,2.25244-21.85413,4.04785-32.67145,.68018-4.09808,3.22321-7.88702,4.91705-11.81683,.77637,.12976,1.55267,.25958,2.32898,.38934,11.38379,19.56604,8.88983,42.09589,12.24207,63.55066,5.85846-5.77313,6.25024-13.97321,3.60339-58.90155,11.03583,19.93231,9.86035,42.27148,12.32227,63.99591Zm-118.01251,11.50629c0-2.42755,.0249-3.97412-.00391-5.51965-.27026-14.49249-.99225-28.995-.65692-43.47321,.19434-8.39008,1.8327-16.78589,3.30988-25.09216,.85626-4.81451,.20276-8.62073-4.13519-11.216-11.13324-6.66077-23.09833-9.62158-35.87183-6.46899-21.28018,5.25214-36.24969,19.15015-47.94437,36.86133-19.38705,29.36096-27.74353,62.07477-28.36279,96.96814-.28964,16.32025,2.15378,32.23138,8.17032,47.4624,1.83893,4.65527,4.28403,9.07111,6.45151,13.59656l1.26819-.53613c-1.0079-4.99811-2.07312-9.98553-3.00803-14.99725-.97684-5.23633-1.92502-10.48169-2.70633-15.74976-.72906-4.91589-1.22263-9.8667-1.97885-16.11646,14.48721,18.32117,18.14685,21.38068,25.36127,20.8194-18.30771-19.82672-17.56476-44.27832-18.06781-68.89874,8.51663,13.26855,13.8049,28.63629,28.70673,36.41071-6.66138-11.88898-14.19852-23.26337-17.0314-36.80133-2.96692-14.17877-.34662-27.30615,7.9809-40.52673,1.74954,20.12012,7.45804,37.71002,19.14554,53.08704-1.05807-8.95587-2.86945-17.71851-4.21277-26.55237-2.32922-15.31757-4.86169-30.69678-1.26529-46.14856,.8764-3.76538,2.82874-7.28027,4.28635-10.9104,7.63873,38.44629,16.82959,65.13531,26.98145,74.28864-1.16537-7.07941-2.33276-13.53699-3.2764-20.02716-2.44498-16.81586-5.43585-33.65826-1.62299-50.63495,1.19641-5.3269,3.29877-10.45026,4.98645-15.66681,.67184,.12018,1.34366,.24036,2.0155,.3606,0,6.23505-.3819,12.50031,.10812,18.69659,.48331,6.1109,1.56818,12.21472,2.9068,18.20599,1.34351,6.013,3.54395,11.76819,8.38153,16.21539,.59009-8.43518,.44775-16.71729,.63013-24.99231,.18207-8.26105,2.47321-16.01654,6.07794-23.36816,1.12518,36.13916,5.69769,62.38232,13.37628,70.72437Zm199.3606-22.83868c10.41632-16.16272,10.6535-34.32117,9.95599-53.3009,4.60236,5.53821,7.88934,14.88367,8.99536,24.23499,1.9859,16.79022-1.04291,33.20209-3.66498,49.64709-.64703,4.05841-1.32556,8.11182-1.98969,12.16748,16.04608-22.00342,23.27478-46.84741,25.95221-73.50122,1.53748,2.24225,3.11169,4.48206,3.50702,6.91357,.98376,6.05139,2.4223,12.27551,1.90546,18.27759-1.4975,17.39001-3.87769,34.70361-5.88049,52.05078-.24493,2.12189-.30109,4.26562-.4447,6.39923,12.25323-15.49634,17.9743-33.09717,19.87146-53.26013,6.57935,10.90479,9.74591,21.4314,8.4209,33.11377-1.44751,12.76306-7.20758,23.77258-14.01306,34.34967-2.01898,3.138-4.09259,6.24084-6.14117,9.3598,.44006,.32507,.88007,.65015,1.32013,.97522,14.32251-8.1925,20.69464-22.95947,28.7381-37.61328,.05865,39.93066-1.59851,45.59912-16.45068,70.59662,11.49481-3.5238,16.65851-12.66827,22.29468-21.28571,.63513,.23334,1.27032,.46674,1.90546,.70007-2.38855,15.21655-4.77704,30.43311-7.26605,46.28955,1.05835-.72717,1.63312-.90308,1.7843-1.25903,2.01355-4.74054,4.35358-9.38635,5.87634-14.28448,13.79059-44.35815,10.09064-87.24017-12.08447-128.10687-10.19757-18.79315-23.33746-35.32141-42.646-45.80914-16.36713-8.89008-32.68365-9.22107-48.79834,.79584-4.2923,2.66803-6.14075,6.47028-5.34338,11.43481,.57782,3.59717,1.94159,7.14874,1.9978,10.73566,.29968,19.13226,.2984,38.26923,.39929,57.4046,.00793,1.49542,.00104,2.99097,.00104,4.48639,.52179,.03351,1.04358,.06702,1.56531,.10052,9.63684-22.14642,10.35883-46.05463,12.72217-70.70892,6.78259,16.42566,6.6748,32.71716,7.51001,49.09644Zm129.68719-10.01276c-5.37964,6.93268-9.94281,12.81317-14.50598,18.6936-.52875-.23859-1.05756-.47711-1.5863-.71564,0-3.76172-.5611-7.62885,.12195-11.26221,1.25708-6.68726,3.35065-13.21246,4.90265-19.85028,1.91016-8.17004,1.91956-16.20935-2.50305-23.93658-1.11731,6.93677-1.36176,14.14386-8.98962,19.34265-1.48212-5.75677-3.125-10.47968-3.84106-15.33911-.89514-6.07568-.86206-12.28204-1.54083-18.39746-.58649-5.28381-2.48822-10.03748-7.21619-14.13129-1.17218,5.95459,.50903,11.74921-4.55829,17.51935-2.02997-5.91852-3.54669-10.58673-5.23627-15.19147-1.42444-3.88184-2.46863-8.08844-4.75128-11.4176-2.2251-3.24524-5.80743-5.55994-9.56512-8.98651,2.17987,7.461,3.87994,13.28003,5.58008,19.09912-.52539,.25562-1.05078,.51117-1.57617,.76678-14.09387-15.1228-32.13525-20.75-51.97375-21.78625-22.70514-1.18591-43.7204,13.51398-49.12115,25.4162,3.2403-1.21948,6.1731-2.24585,9.04694-3.41699,23.77618-9.68964,46.09882-7.88074,66.94904,7.90009,18.46234,13.97357,31.55719,32.10968,39.98138,53.28986,21.57733,54.24988,19.03113,108.38171-2.52722,162.0907-.56488,1.40741-1.10864,2.82336-1.99915,5.09479,8.63904-4.91705,30.08405-37.23456,31.15717-46.20319-2.13672-.36237-4.28564-.72681-6.46899-1.09711,3.64417-6.80994,7.35583-13.13812,10.47424-19.74628,3.05414-6.47186,5.75989-13.17212,5.26953-22.04285-3.54895,3.81305-6.13702,6.59375-8.7251,9.37445,3.6145-8.63263,8.06-16.59058,11.96686-24.80475,3.89343-8.18579,6.8067-16.70428,4.78735-26.10034-4.79077,6.45959-6.68585,14.91327-15.20892,19.43787,.17084-2.65668-.02435-4.66968,.474-6.49304,2.14252-7.83954,4.17603-15.73267,6.85138-23.39612,2.53394-7.25848,4.99347-14.41461,4.33191-23.71039Zm-436.64505,163.77515c-2.58194-7.62732-5.3197-15.20605-7.71893-22.89038-10.63779-34.07117-14.32098-68.60944-7.802-104.05511,6.39017-34.74542,21.83221-64.42657,47.76846-88.4704,17.43481-16.16266,37.70142-21.92566,60.90894-15.4234,6.94208,1.94501,13.74554,4.38483,21.69507,6.94684-9.10889-12.88-20.41144-20.73059-34.60663-23.64874-25.82156-5.30823-48.67349,.74097-67.66495,19.78326-.48843-.25885-.97687-.51776-1.46527-.77661,1.80307-5.87189,3.60611-11.74384,5.77264-18.79944-3.20612,2.5766-6.28897,3.97333-7.62946,6.35199-2.96939,5.26917-5.11993,11.00757-7.49542,16.60095-1.60257,3.77338-3.01913,7.62567-4.51892,11.44269-.78073-.07043-1.56143-.14093-2.34216-.21136-1.52753-5.1842-3.05502-10.36835-4.66476-15.83154-4.43079,3.89862-5.97623,8.72162-6.21591,13.98462-.29538,6.48572,.14459,13.03204-.55435,19.46301-.49771,4.58008-2.35101,9.01282-3.77063,14.1286-7.31204-5.69891-7.54596-13.31458-10.21603-21.16583-4.00043,7.76886-4.65665,14.68146-3.06915,21.76007,1.34528,5.99872,3.28131,11.86279,4.86639,17.81036,1.50195,5.63568,2.46356,11.29858-.29523,17.94385-5.12122-6.25647-9.81424-11.98975-14.50726-17.72308-.53015,.2019-1.0603,.40375-1.59045,.60565,1.07614,5.27734,1.77124,10.67096,3.33615,15.79913,1.54782,5.07233,4.0675,9.84039,5.99182,14.80737,2.59119,6.68829,3.69,13.57758,2.52756,21.30084-7.76031-4.43567-9.84012-12.09552-13.15469-18.94458-3.41125,20.03027,8.67676,34.58582,16.88153,50.68262-3.34488-3.0705-6.68973-6.14099-11.05762-10.15063,1.30722,16.84271,10.61444,29.00323,16.9191,42.64484-2.75168,.2265-4.8295,.39752-8.23065,.67749,8.85379,17.00977,18.78638,32.16895,31.90283,45.35693Zm156.47678-297.63904c1.27167-.61221,3.11108-1.83347,5.13403-2.40637,5.30957-1.50351,5.58142-4.30707,3.91797-9.22409-15.18597-44.89017-59.72388-76.47073-107.07809-75.45462-12.79263,.27451-24.72015,3.60056-34.82687,11.81995-8.03104,6.53125-10.26349,13.97549-7.18762,22.50699,3.80728,10.56003,10.78955,16.24048,21.26318,15.45547,15.56229-1.16641,28.69037-7.332,36.33078-21.86514,1.73386-3.29803,3.29953-4.37738,7.20236-3.85443,23.58112,3.15991,42.45184,14.48392,56.61938,33.19208,6.86938,9.07095,12.15387,19.34216,18.62488,29.83017Zm82.10724,.07358c.43103-.55457,.70154-.78464,.82104-1.0766,.56775-1.3866,1.05042-2.80899,1.64215-4.18478,13.39136-31.13873,35.26227-51.96164,69.72955-57.7475,4.00531-.67233,5.88263,.46405,7.96698,3.73288,8.6004,13.48795,20.76245,21.4361,37.05341,21.95721,10.15149,.32471,17.76849-4.70505,20.8949-13.1496,3.48431-9.41132,1.12927-17.79309-7.09497-24.48221-9.77661-7.95178-21.08826-12.05426-33.63434-12.20938-46.29926-.57236-88.2287,27.5697-105.46893,70.5903-4.65515,11.61624-4.30054,12.35776,8.09021,16.56967Zm-63.79492,43.6763c7.60315,3.68481,14.83514,4.46045,21.52045-1.62561,6.73834,5.52551,13.72809,5.79407,20.92035,1.67523,10.39581,7.97363,13.92401,7.96869,22.05914-.20386,2.35925,1.62561,4.77063,3.28717,7.24365,4.99127,3.77655-2.80426,3.24976-5.96594,1.42615-9.33643-6.30811-11.65955-15.94012-19.90054-27.20001-26.46887-12.51605-7.30112-25.50464-9.47702-39.09991-3.2551-4.37311,2.00137-8.71307,4.19763-12.73773,6.81329-9.66443,6.28101-17.64117,14.19412-21.96777,25.15396-.52307,1.32513-.02924,3.05157-.00665,4.59198,1.48511-.28424,2.99408-.48334,4.44525-.88898,.71881-.20093,1.33148-.78192,1.9292-1.15198,7.83691,7.5531,12.78418,7.49384,21.4679-.29492Zm22.88678,282.72369c-.74585,.00751-1.4917,.01508-2.23755,.02264-.81305,2.09412-1.78516,4.1416-2.41486,6.28949-7.09442,24.19946-9.61462,48.89264-7.3418,73.99384,.44238,4.88593,1.75458,9.89691,3.76404,14.35504,1.07666,2.38867,4.49054,5.13617,6.8537,5.13983,2.41473,.00372,6.04028-2.65906,7.00635-5.02429,2.16254-5.29437,3.65778-11.06,4.25708-16.75659,1.77039-16.82928,.07379-33.56873-3.08008-50.10791-1.79156-9.39508-4.50732-18.61389-6.80688-27.91205Zm34.25562-6.58875l-.81079,.10254c.34778,1.76263,.4342,3.62878,1.08502,5.27136,4.82556,12.17841,9.15106,24.60919,14.85272,36.36969,4.85956,10.0238,11.42822,19.31396,20.89044,25.70074,3.70746,2.50244,8.32526,4.2373,12.75018,4.95551,6.17157,1.00171,12.16803-3.51892,13.84576-9.14532,1.46149-4.90106-.51752-8.34229-7.04999-12.14752-5.60406-3.26447-11.30511-6.36896-16.83099-9.75977-12.12268-7.43848-23.64331-15.65485-31.52002-27.84961-2.7583-4.27045-4.82812-8.9856-7.21234-13.49762Zm-70.23785,.34814c-.36182-.08795-.72369-.17596-1.08557-.26398-2.1344,4.43829-3.92175,9.08765-6.46906,13.27466-7.28461,11.97363-18.0976,20.25555-29.86151,27.40662-6.53949,3.97522-13.27637,7.63147-19.74786,11.71136-6.87036,4.33142-7.21783,11.21735-1.04291,16.54742,3.78168,3.26422,8.35242,4.91577,12.95422,2.90643,4.76935-2.08234,9.74359-4.59296,13.39679-8.17291,13.22455-12.95929,21.44989-29.10303,27.37256-46.44287,1.88605-5.52185,3.01044-11.30377,4.48334-16.96674Zm56.19446,17.41382c-.26447-.01727-.52893-.03448-.7934-.0517-.11597,2.60181-.27405,5.20258-.34113,7.80566-.46875,18.18982,.43164,36.25769,5.56433,53.84998,1.96576,6.73737,4.55457,13.29199,10.45093,17.73651,5.0199,3.78375,10.97687,2.47864,16.20093-3.34039,5.06317-5.63965,5.49213-10.74542,.69135-15.35822-10.54681-10.13385-17.46808-22.54742-22.87018-35.87476-3.29291-8.12384-5.95654-16.50275-8.90283-24.76709Zm-43.71765-.19373c-1.71942,5.50696-3.30121,11.0614-5.1839,16.51196-5.83563,16.89508-12.55176,33.31586-26.01941,45.89447-2.94092,2.74677-3.2453,6.13965-1.94983,9.63409,1.94519,5.24701,6.00745,8.37909,11.33411,9.52423,4.70007,1.01031,8.08423-1.93451,10.50732-5.32135,2.67371-3.73688,5.28009-7.81659,6.6203-12.14783,2.34784-7.5874,4.22681-15.40552,5.36438-23.26276,1.95172-13.48169,2.42371-27.06677-.67297-40.83282Zm-43.71967-105.46997c-.99481-1.98077-1.59271-4.22913-2.98981-5.73694-3.09332-3.33856-6.58826-6.30505-9.91937-9.42328-2.52838,3.90613-5.9328,7.5155-7.37982,11.7879-2.16779,6.401-2.33929,13.47668-4.49493,19.88354-2.72693,8.1048-6.4129,15.91095-10.05878,23.67041-1.40289,2.98572-4.19482,3.22742-6.52234,.6897-1.20068-1.30908-1.67957-3.28485-2.89203-4.57721-1.20874-1.28827-3.41876-3.26874-4.32489-2.88788-2.26276,.95099-4.45453,2.80029-5.77893,4.86407-.47101,.73389,1.25287,3.67902,2.64673,4.66339,5.12433,3.61865,10.51337,6.86548,15.83527,10.2005,6.73718,4.22205,9.44775,3.46674,11.44733-4.18475,4.448-17.02032,14.08789-31.39923,22.77002-46.2868,.48907-.83868,1.0271-1.64874,1.66156-2.66266Zm163.65259,56.31464c2.3324-.84509,3.55334-1.03601,4.47821-1.66333,6.03723-4.09491,12.13318-8.12164,17.94958-12.51538,2.6908-2.03265,2.63141-4.95807,.08954-7.328-2.56909-2.39526-5.42505-2.68915-7.82391,.19183-1.36169,1.63544-2.0368,3.83673-3.37311,5.50031-2.41687,3.00867-5.54126,2.73553-7.17517-.63666-2.95325-6.09521-6.29498-12.09607-8.37848-18.49335-2.20209-6.76166-2.81348-14.02606-4.71704-20.90564-1.26227-4.56195-3.35785-8.9469-5.56213-13.15894-.58539-1.11853-3.23041-2.17474-4.44861-1.77893-7.00793,2.2771-10.4715,13.10455-6.42151,19.11725,1.01923,1.51312,2.03253,3.06775,2.77002,4.72705,6.14374,13.82129,12.15253,27.703,18.39368,41.47974,.95929,2.11749,2.89722,3.79175,4.21893,5.46405Zm-97.43042,16.81616c.52832,.04919,1.0567,.09845,1.58502,.14764,.43243-.77606,1.10852-1.50824,1.25757-2.33545,.9411-5.22186,2.17413-10.43542,2.55194-15.70612,1.16425-16.24219,2.50873-32.50006,2.78387-48.76874,.23767-14.05103,1.11639-28.34283-4.08838-41.9082-1.12732-2.93811-2.84143-5.651-4.28534-8.46765-.54968,.07373-1.0993,.14746-1.64899,.22119-.73773,2.09467-2.01086,4.15845-2.13348,6.28845-2.12952,36.99933,2.84485,73.67389,3.97778,110.52887Zm15.4895-9.61365c.42554,.00885,.85107,.01764,1.27661,.02649,.30157-1.01672,.69775-2.01593,.89062-3.05286,3.3172-17.83606,7.08411-35.60657,9.74005-53.54132,1.77094-11.95856,2.20404-24.14276,2.6814-36.24786,.1358-3.44324-1.67175-6.96313-2.90509-11.6532-1.70312,2.22382-2.43036,2.92926-2.86023,3.78418-.97009,1.9295-2.24652,3.85455-2.60327,5.91882-2.48645,14.38635-5.6723,28.73383-6.85938,43.23907-1.13733,13.89758-.17181,27.97095-.0379,41.96619,.03046,3.18866,.44141,6.37378,.67719,9.56049Zm-44.13965-103.86536c-.29102,3.33368-.90936,5.65167-.61444,7.84692,1.43524,10.68311,2.36243,21.51398,4.86749,31.95715,4.93152,20.55859,9.18988,41.14917,9.80396,62.35718,.01904,.65802,.49622,1.3028,.92688,2.36646,10.2782-26.29456,3.96735-83.96112-14.98389-104.52771Zm60.43237,92.03333c.56366-1.63763,1.18732-3.25745,1.68188-4.91577,6.26215-20.9986,12.534-41.99451,18.72937-63.01288,1.17273-3.97876,2.29767-8.0108,2.91791-12.09821,.36279-2.39099-.31708-4.94019-.56592-7.86609-12.03217,7.43091-28.59668,59.94305-22.76324,87.89294Zm-59.43701,1.23456c9.09656-21.37329-9.60931-81.06079-27.39673-88.37097,.37402,2.24268,.38666,4.23181,1.05133,5.9718,2.7829,7.2851,6.00012,14.41052,8.61365,21.75269,4.22174,11.85974,8.37726,23.75861,12.01044,35.80682,2.32574,7.71295,3.6618,15.72424,5.72131,24.83966Zm-185.14691-301.23203c5.41742-13.353,14.84158-21.7023,29.72787-23.76736-7.51416-7.12668-7.77121-7.04318-15.19-3.30811-11.08853,5.58264-14.21228,15.45602-14.53787,27.07547Zm397.11755-23.68396c14.30823,2.4017,22.39081,11.84778,27.59174,25.65247,2.09161-13.47275-3.56158-23.49692-15.60071-29.43967-6.91187-3.41183-7.24719-3.31631-11.99103,3.7872Z"/>
  <path class="uuid-1c58501c-e3d0-4819-b71a-0bcc5ead83d9" d="M663.18743,340.3212c-37.20319,11.87003-59.3291,37.75555-71.88959,74.27289-11.49622-37.34705-33.65497-63.19226-72.01093-74.31866,9.56763-5.16183,19.16327-8.49997,29.034-6.12805,9.30688,2.23642,18.04596,6.8353,27.01123,10.38556-5.79901-18.47684,1.72144-33.29108,15.95593-46.29883,15.67773,12.28885,21.94574,27.73047,17.27094,48.87546,17.54095-14.50421,35.07135-17.85706,54.62842-6.78836Z"/>
  <path class="uuid-1c58501c-e3d0-4819-b71a-0bcc5ead83d9" d="M441.20449,373.69794c-4.37466,7.64166-11.54306,10.30295-17.79477,6.89288,2.38461-6.46713,10.59302-9.7562,17.79477-6.89288Z"/>
  <path class="uuid-1c58501c-e3d0-4819-b71a-0bcc5ead83d9" d="M760.67492,380.49778c-6.0257,3.23679-14.17206,.40527-18.9209-6.57654,6.75885-3.73868,14.95404-.8902,18.9209,6.57654Z"/>
</svg>