<svg id="Layer_2" data-name="Layer 2" xmlns="http://www.w3.org/2000/svg" width="18" height="18" viewBox="0 0 18 18">
  <g id="invisible_box" data-name="invisible box">
    <rect id="Rectangle_77" data-name="Rectangle 77" width="18" height="18" fill="none"/>
  </g>
  <g id="icons_Q2" data-name="icons Q2" transform="translate(2.625 0.75)">
    <path id="Path_46" data-name="Path 46" d="M19.625,11.5A1.125,1.125,0,1,1,18.5,12.625,1.088,1.088,0,0,1,19.625,11.5m0-1.5a2.625,2.625,0,1,0,2.625,2.625A2.625,2.625,0,0,0,19.625,10Z" transform="translate(-13.25 -7)" fill="#666"/>
    <path id="Path_47" data-name="Path 47" d="M13.375,3.5A4.96,4.96,0,0,1,18.25,8.75c0,3-3.225,6.263-4.875,7.95C11.725,15.013,8.5,11.563,8.5,8.75A5.074,5.074,0,0,1,13.375,3.5m0-1.5A6.459,6.459,0,0,0,7,8.75c0,3.712,4.313,7.987,5.85,9.525a.712.712,0,0,0,1.05,0c1.538-1.538,5.85-5.738,5.85-9.525A6.415,6.415,0,0,0,13.375,2Z" transform="translate(-7 -2)" fill="#666"/>
  </g>
</svg>
