<svg xmlns="http://www.w3.org/2000/svg" xmlns:xlink="http://www.w3.org/1999/xlink" width="24" height="24" viewBox="0 0 24 24">
  <defs>
    <clipPath id="clip-path">
      <rect id="Rectangle_109" data-name="Rectangle 109" width="24" height="24" transform="translate(21 94)" fill="none" stroke="#707070" stroke-width="1"/>
    </clipPath>
  </defs>
  <g id="Mask_Group_24" data-name="Mask Group 24" transform="translate(-21 -94)" clip-path="url(#clip-path)">
    <g id="departure_board_black_24dp" transform="translate(24 96)">
      <path id="Path_75" data-name="Path 75" d="M0,0H18.988V18.988H0Z" fill="none"/>
      <path id="Path_76" data-name="Path 76" d="M12.868,1A5.535,5.535,0,0,0,8.295,3.413c.008-.008.008-.016.016-.024-.316-.016-.649-.016-.981-.016-3.5,0-6.329.4-6.329,3.165V14.45a2.362,2.362,0,0,0,.791,1.756v1.408a.794.794,0,0,0,.791.791h.791a.794.794,0,0,0,.791-.791v-.791h6.329v.791a.794.794,0,0,0,.791.791h.791a.794.794,0,0,0,.791-.791V16.206a2.362,2.362,0,0,0,.791-1.756V12.013A5.535,5.535,0,0,0,12.868,1Zm-9.1,14.241a1.187,1.187,0,1,1,1.187-1.187A1.185,1.185,0,0,1,3.769,15.241ZM2.582,10.494V6.538H7.329A5.514,5.514,0,0,0,9,10.494Zm8.307,4.747a1.187,1.187,0,1,1,1.187-1.187A1.185,1.185,0,0,1,10.89,15.241Zm1.978-4.747a3.956,3.956,0,1,1,3.956-3.956A3.957,3.957,0,0,1,12.868,10.494Zm.4-7.121H12.076V7.329l2.864,1.709.593-.973L13.263,6.736Z" transform="translate(-0.209 -0.209)" fill="#707070"/>
    </g>
  </g>
</svg>
