<svg id="Layer_2" data-name="Layer 2" xmlns="http://www.w3.org/2000/svg" width="15" height="15" viewBox="0 0 15 15">
  <g id="invisible_box" data-name="invisible box">
    <rect id="Rectangle_89" data-name="Rectangle 89" width="15" height="15" fill="none"/>
  </g>
  <g id="icons_Q2" data-name="icons Q2" transform="translate(0.625 0.625)">
    <path id="Path_58" data-name="Path 58" d="M8.875,14.5A5.625,5.625,0,1,0,3.25,8.875,5.625,5.625,0,0,0,8.875,14.5m0,1.25a6.844,6.844,0,1,1,4.871-2A6.875,6.875,0,0,1,8.875,15.75Z" transform="translate(-2 -2)" fill="#4a80f5"/>
    <path id="Path_59" data-name="Path 59" d="M17.126,19.247l-2.062-2.062a.594.594,0,0,0-.937.063.656.656,0,0,0,.063.844l2.5,2.469a.594.594,0,0,0,.875,0l2.5-2.469a.656.656,0,0,0,.063-.844.594.594,0,0,0-.937-.062Z" transform="translate(-10.251 -11.685)" fill="#4a80f5"/>
  </g>
</svg>
