<?xml version="1.0" encoding="utf-8"?>
<!-- Generator: Adobe Illustrator 27.1.1, SVG Export Plug-In . SVG Version: 6.00 Build 0)  -->
<svg version="1.1" id="Layer_1" xmlns="http://www.w3.org/2000/svg" xmlns:xlink="http://www.w3.org/1999/xlink" x="0px" y="0px"
	 viewBox="0 0 26 33" style="enable-background:new 0 0 26 33;" xml:space="preserve">
<style type="text/css">
	.st0{fill:#FFFFFF;}
	.st1{fill:none;stroke:#707070;}
	.st2{fill:#DE3A3A;}
</style>
<g id="Ellipse_158" transform="translate(1103 625)">
	<circle class="st0" cx="-1089.6" cy="-614.1" r="6.4"/>
	<circle class="st1" cx="-1089.6" cy="-614.1" r="5.9"/>
</g>
<g id="icons_Q2" transform="translate(5.25 1.5)">
	<path id="Path_26" class="st2" d="M7.8-1.5C0.3-1.5-5,4.6-5,12S3.6,28,6.7,31c0.5,0.6,1.4,0.6,2,0.1c0,0,0.1-0.1,0.1-0.1
		c3.1-3.1,11.7-11.5,11.7-19S15.2-1.5,7.8-1.5z M7.8,15c-2.9,0-5.2-2.4-5.2-5.2s2.4-5.2,5.2-5.2S13,6.9,13,9.8l0,0
		C13,12.6,10.6,15,7.8,15z"/>
</g>
</svg>
