<svg xmlns="http://www.w3.org/2000/svg" xmlns:xlink="http://www.w3.org/1999/xlink" width="24" height="24" viewBox="0 0 24 24">
  <defs>
    <clipPath id="clip-path">
      <rect id="Rectangle_106" data-name="Rectangle 106" width="24" height="24" transform="translate(21 303)" fill="none" stroke="#707070" stroke-width="1"/>
    </clipPath>
  </defs>
  <g id="Mask_Group_20" data-name="Mask Group 20" transform="translate(-21 -303)" clip-path="url(#clip-path)">
    <g id="data_object_black_24dp" transform="translate(24.171 305.672)">
      <g id="Group_129" data-name="Group 129" transform="translate(-0.848 -0.524)">
        <rect id="Rectangle_96" data-name="Rectangle 96" width="20" height="20" transform="translate(-0.323 -0.322)" fill="none"/>
      </g>
      <g id="Group_131" data-name="Group 131" transform="translate(1.461 2.999)">
        <g id="Group_130" data-name="Group 130">
          <path id="Path_65" data-name="Path 65" d="M3.511,6.267V7.778a.758.758,0,0,1-.756.756H2v3.023h.756a.758.758,0,0,1,.756.756v1.511a2.274,2.274,0,0,0,2.267,2.267H8.045V14.579H5.778a.758.758,0,0,1-.756-.756V12.312a2.277,2.277,0,0,0-1.511-2.139V9.917A2.277,2.277,0,0,0,5.023,7.778V6.267a.758.758,0,0,1,.756-.756H8.045V4H5.778A2.274,2.274,0,0,0,3.511,6.267Z" transform="translate(-2 -4)" fill="#707070"/>
          <path id="Path_66" data-name="Path 66" d="M19.29,8.534a.758.758,0,0,1-.756-.756V6.267A2.274,2.274,0,0,0,16.267,4H14V5.511h2.267a.758.758,0,0,1,.756.756V7.778a2.277,2.277,0,0,0,1.511,2.139v.257a2.27,2.27,0,0,0-1.511,2.139v1.511a.758.758,0,0,1-.756.756H14v1.511h2.267a2.274,2.274,0,0,0,2.267-2.267V12.312a.758.758,0,0,1,.756-.756h.756V8.534Z" transform="translate(-4.932 -4)" fill="#707070"/>
        </g>
      </g>
    </g>
  </g>
</svg>
