<svg id="Layer_2" data-name="Layer 2" xmlns="http://www.w3.org/2000/svg" width="18" height="18" viewBox="0 0 18 18">
  <g id="invisible_box" data-name="invisible box">
    <rect id="Rectangle_85" data-name="Rectangle 85" width="18" height="18" fill="none"/>
  </g>
  <g id="icons_Q2" data-name="icons Q2" transform="translate(3.75 3.735)">
    <path id="Path_51" data-name="Path 51" d="M16.3,15.225l3.975-3.937a.787.787,0,0,0,.075-1.012.712.712,0,0,0-1.125-.075l-3.975,3.975L11.276,10.2a.712.712,0,0,0-1.125.075.787.787,0,0,0,.075,1.012L14.2,15.225l-3.975,3.937a.788.788,0,0,0-.075,1.013.712.712,0,0,0,1.125.075l3.975-3.975,3.975,3.975a.712.712,0,0,0,1.125-.075.788.788,0,0,0-.075-1.013Z" transform="translate(-10.001 -9.959)" fill="#666"/>
  </g>
</svg>
