<svg width="16" height="16" viewBox="0 0 16 16" fill="none" xmlns="http://www.w3.org/2000/svg">
<g clip-path="url(#clip0_226_4830)">
<path d="M12.62 3.83325L12.62 3.83325C12.8501 3.83321 13.0771 3.88609 13.2834 3.98779C13.4872 4.08825 13.6655 4.23368 13.8049 4.41309L13.8722 4.50761L14.5813 5.57127L14.5813 5.57136C14.7232 5.78402 14.8083 6.02936 14.8286 6.28407L14.8333 6.41292V10.6666V10.6667C14.8334 10.877 14.754 11.0795 14.611 11.2336C14.4701 11.3855 14.2778 11.4794 14.0717 11.4973L13.9916 11.4999H13.8866H13.5331L13.4152 11.8333C13.3144 12.1184 13.1298 12.3665 12.8855 12.5449C12.6413 12.7233 12.3488 12.8238 12.0465 12.8331C11.7442 12.8424 11.4461 12.7601 11.1913 12.597C10.9382 12.435 10.7396 12.2007 10.6212 11.9246L10.5783 11.8161L10.4533 11.4999H10.1133H5.88596H5.53256L5.41462 11.8331C5.31372 12.1181 5.12908 12.366 4.88489 12.5443C4.64069 12.7225 4.34834 12.8229 4.04613 12.8322C3.74393 12.8415 3.44596 12.7593 3.19127 12.5964C2.93823 12.4345 2.73963 12.2004 2.62112 11.9245L2.57827 11.8161L2.45328 11.4999H2.11329H1.99996H1.9998C1.78956 11.5 1.58707 11.4206 1.43291 11.2776C1.281 11.1368 1.18709 10.9445 1.16929 10.7383L1.16663 10.6583V5.33325V5.33322C1.1666 4.95062 1.31279 4.58247 1.57527 4.30409C1.83614 4.02743 2.19228 3.86023 2.57161 3.83615L2.67373 3.83325L12.62 3.83325ZM14.5 7.33325V6.40403C14.5 6.40399 14.5 6.40396 14.5 6.40392C14.5 6.1735 14.4318 5.94824 14.304 5.75653L13.5907 4.68602L13.5906 4.68575C13.484 4.52602 13.3396 4.39506 13.1703 4.30449C13.001 4.21394 12.812 4.16657 12.62 4.16659C12.6199 4.16659 12.6199 4.16659 12.6199 4.16659H12H11.5V4.66659V7.33325V7.83325H12H14H14.5V7.33325ZM4.49996 4.66659V4.16659H3.99996H2.66663H2.66656C2.3808 4.16662 2.105 4.27153 1.89146 4.46142C1.67792 4.65131 1.54149 4.91296 1.50806 5.19675L1.50638 5.21103L1.50552 5.22539L1.50085 5.30339L1.49996 5.31831V5.33325V6.66658V7.16658H1.99996H3.99996H4.49996V6.66658V4.66659ZM7.83329 4.66659V4.16659H7.33329H5.33329H4.83329V4.66659V6.66658V7.16658H5.33329H7.33329H7.83329V6.66658V4.66659ZM11.1666 4.66659V4.16659H10.6666H8.66663H8.16663V4.66659V6.66658V7.16658H8.66663H10.6666H11.1666V6.66658V4.66659ZM12 10.1666C11.6905 10.1666 11.3938 10.2895 11.175 10.5083C10.9562 10.7271 10.8333 11.0238 10.8333 11.3333C10.8333 11.6427 10.9562 11.9394 11.175 12.1582C11.3938 12.377 11.6905 12.4999 12 12.4999C12.3094 12.4999 12.6061 12.377 12.8249 12.1582C13.0437 11.9394 13.1666 11.6427 13.1666 11.3333C13.1666 11.0238 13.0437 10.7271 12.8249 10.5083C12.6061 10.2895 12.3094 10.1666 12 10.1666ZM3.99996 10.1666C3.69054 10.1666 3.3938 10.2895 3.175 10.5083C2.95621 10.7271 2.83329 11.0238 2.83329 11.3333C2.83329 11.6427 2.95621 11.9394 3.175 12.1582C3.39379 12.377 3.69054 12.4999 3.99996 12.4999C4.30938 12.4999 4.60612 12.377 4.82492 12.1582C5.04371 11.9394 5.16663 11.6427 5.16663 11.3333C5.16663 11.0238 5.04371 10.7271 4.82492 10.5083C4.60612 10.2895 4.30938 10.1666 3.99996 10.1666Z" fill="#1A73E9" stroke="#1967D3"/>
</g>
<defs>
<clipPath id="clip0_226_4830">
<rect width="16" height="16" fill="white"/>
</clipPath>
</defs>
</svg>
