<svg xmlns="http://www.w3.org/2000/svg" width="17.997" height="18" viewBox="0 0 17.997 18">
  <path id="call" d="M46.519,50.009A7.571,7.571,0,0,1,42.983,48.8,22.989,22.989,0,0,1,37.43,44.65a21.073,21.073,0,0,1-4.17-5.552c-1.48-2.692-1.228-4.1-.946-4.706a3.757,3.757,0,0,1,1.473-1.58,7.083,7.083,0,0,1,1.151-.611l.111-.049a1.075,1.075,0,0,1,.882-.08,2.583,2.583,0,0,1,.838.643,13.93,13.93,0,0,1,2.1,3.111,3.1,3.1,0,0,1,.411,1.274,2.013,2.013,0,0,1-.512,1.2c-.053.072-.1.141-.155.207-.306.4-.373.518-.329.725a7.622,7.622,0,0,0,1.856,2.753,7.306,7.306,0,0,0,2.721,1.811c.216.046.335-.024.749-.34.059-.045.121-.092.184-.139A2.024,2.024,0,0,1,45,42.771h0a2.911,2.911,0,0,1,1.28.449,15.349,15.349,0,0,1,3.1,2.08,2.582,2.582,0,0,1,.645.836,1.084,1.084,0,0,1-.08.884c-.015.033-.031.07-.049.11a7.091,7.091,0,0,1-.614,1.148,3.757,3.757,0,0,1-1.582,1.47,2.709,2.709,0,0,1-1.187.26Z" transform="translate(-32.098 -32.009)" fill="#184387"/>
</svg>
