<svg id="Layer_2" data-name="Layer 2" xmlns="http://www.w3.org/2000/svg" width="18" height="18" viewBox="0 0 18 18">
  <g id="invisible_box" data-name="invisible box">
    <rect id="Rectangle_80" data-name="Rectangle 80" width="18" height="18" fill="none"/>
  </g>
  <g id="icons_Q2" data-name="icons Q2" transform="translate(2.625 0.75)">
    <path id="Path_49" data-name="Path 49" d="M17.688,11.038A22.853,22.853,0,0,1,13.375,16.7C11.725,15.013,8.5,11.563,8.5,8.75A5.074,5.074,0,0,1,13.375,3.5h0a.75.75,0,0,0,.75-.75h0a.75.75,0,0,0-.75-.75h0A6.459,6.459,0,0,0,7,8.75c0,3.712,4.313,7.987,5.85,9.525a.712.712,0,0,0,1.05,0,25.16,25.16,0,0,0,5.137-6.6.75.75,0,0,0-.712-1.05h0A.675.675,0,0,0,17.688,11.038Z" transform="translate(-7 -2)" fill="#666"/>
    <path id="Path_50" data-name="Path 50" d="M25.775,8.14,22.85,5.215a.712.712,0,0,0-1.05,0L17.225,9.79a.75.75,0,0,0-.225.525V13.24a.75.75,0,0,0,.75.75h2.925a.75.75,0,0,0,.525-.225L25.775,9.19a.712.712,0,0,0,0-1.05ZM18.5,12.49V10.653l2.025-2.025,1.838,1.838L20.337,12.49Zm4.912-3.075L21.575,7.578l.75-.787L24.2,8.665Z" transform="translate(-13.25 -3.865)" fill="#666"/>
  </g>
</svg>
