<svg xmlns="http://www.w3.org/2000/svg" xmlns:xlink="http://www.w3.org/1999/xlink" width="24" height="24" viewBox="0 0 24 24">
  <defs>
    <clipPath id="clip-path">
      <rect id="Rectangle_108" data-name="Rectangle 108" width="24" height="24" transform="translate(21 386)" fill="none" stroke="#707070" stroke-width="1"/>
    </clipPath>
  </defs>
  <g id="Mask_Group_18" data-name="Mask Group 18" transform="translate(-21 -386)" clip-path="url(#clip-path)">
    <g id="support_agent_black_24dp" transform="translate(23.646 388.201)">
      <g id="Group_135" data-name="Group 135" transform="translate(-0.066 -0.066)">
        <rect id="Rectangle_98" data-name="Rectangle 98" width="18" height="18" transform="translate(0.42 0.42)" fill="none"/>
      </g>
      <g id="Group_137" data-name="Group 137" transform="translate(1.556 2.335)">
        <g id="Group_136" data-name="Group 136">
          <path id="Path_68" data-name="Path 68" d="M16.816,10.19a7.021,7.021,0,1,0-14.036.047A1.534,1.534,0,0,0,2,11.578v1.56A1.564,1.564,0,0,0,3.56,14.7h.78V9.94a5.458,5.458,0,0,1,10.917,0v5.536H9.018v1.56h6.238a1.564,1.564,0,0,0,1.56-1.56v-.951a1.442,1.442,0,0,0,.78-1.279V11.453A1.436,1.436,0,0,0,16.816,10.19Z" transform="translate(-2 -3)" fill="#707070"/>
          <ellipse id="Ellipse_197" data-name="Ellipse 197" cx="0.5" cy="1" rx="0.5" ry="1" transform="translate(4.798 7.018)" fill="#707070"/>
          <ellipse id="Ellipse_198" data-name="Ellipse 198" cx="0.5" cy="1" rx="0.5" ry="1" transform="translate(9.798 7.018)" fill="#707070"/>
          <path id="Path_69" data-name="Path 69" d="M15.359,9.922A4.709,4.709,0,0,0,6.017,11.03a6.3,6.3,0,0,0,3.79-4.593A6.267,6.267,0,0,0,15.359,9.922Z" transform="translate(-2.882 -3.661)" fill="#707070"/>
        </g>
      </g>
    </g>
  </g>
</svg>
