<?xml version="1.0" encoding="utf-8"?>
<!-- Generator: Adobe Illustrator 28.1.0, SVG Export Plug-In . SVG Version: 6.00 Build 0)  -->
<svg version="1.1" id="Layer_1" xmlns="http://www.w3.org/2000/svg" xmlns:xlink="http://www.w3.org/1999/xlink" x="0px" y="0px"
	 viewBox="0 0 24 24" style="enable-background:new 0 0 24 24;" xml:space="preserve">
<style type="text/css">
	.st0{fill:#FFFFFF;}
	.st1{fill:#1A73E9;}
</style>
<path class="st0" d="M12,22.9c-2.9-2.5-5.1-4.8-6.5-6.9S3.3,11.9,3.3,10c0-2.7,0.9-4.9,2.6-6.5S9.7,1.1,12,1.1s4.3,0.8,6.1,2.4
	s2.6,3.8,2.6,6.5c0,1.8-0.7,3.8-2.2,5.9C17.1,18.1,14.9,20.4,12,22.9z"/>
<path class="st1" d="M16.9,6.7c0-0.1,0-0.8-0.7-1.5c-0.7-0.7-1.4-0.7-1.5-0.7H9.3c-0.1,0-0.8,0-1.5,0.7C7.1,5.9,7.1,6.6,7.1,6.7v1.6
	H6.6V10h0.5v3.3c0,0.4,0.2,0.7,0.5,0.9v0.7c0,0.1,0.1,0.3,0.2,0.4c0.1,0.1,0.2,0.2,0.4,0.2h0.5c0.1,0,0.3-0.1,0.4-0.2
	c0.1-0.1,0.2-0.2,0.2-0.4v-0.5h5.4v0.5c0,0.1,0.1,0.3,0.2,0.4c0.1,0.1,0.2,0.2,0.4,0.2h0.5c0.1,0,0.3-0.1,0.4-0.2
	c0.1-0.1,0.2-0.2,0.2-0.4v-0.7c0.2-0.1,0.3-0.2,0.4-0.4c0.1-0.2,0.1-0.4,0.1-0.5V10h0.5V8.3h-0.5V6.7z M9,13.2
	c-0.2,0-0.4-0.1-0.6-0.2c-0.2-0.2-0.2-0.4-0.2-0.6c0-0.2,0.1-0.4,0.2-0.6c0.2-0.2,0.4-0.2,0.6-0.2s0.4,0.1,0.6,0.2
	c0.2,0.2,0.2,0.4,0.2,0.6c0,0.2-0.1,0.4-0.2,0.6C9.4,13.2,9.2,13.2,9,13.2z M15,13.2c-0.2,0-0.4-0.1-0.6-0.2
	c-0.2-0.2-0.2-0.4-0.2-0.6c0-0.2,0.1-0.4,0.2-0.6c0.2-0.2,0.4-0.2,0.6-0.2c0.2,0,0.4,0.1,0.6,0.2c0.2,0.2,0.2,0.4,0.2,0.6
	c0,0.2-0.1,0.4-0.2,0.6C15.4,13.2,15.2,13.2,15,13.2z M15.8,10.5H8.2V7.1c0-0.6,0.5-1.1,1.1-1.1h5.4c0.6,0,1.1,0.5,1.1,1.1V10.5z"/>
</svg>
