<svg width="36" height="40" viewBox="0 0 36 40" fill="none" xmlns="http://www.w3.org/2000/svg">
<path d="M19.4839 36.8665L28.3178 27.0909C29.4801 25.8048 28.5674 23.75 26.8339 23.75H9.16605C7.43259 23.75 6.51994 25.8048 7.68219 27.0909L16.5161 36.8665C17.3102 37.7452 18.6898 37.7452 19.4839 36.8665Z" fill="#1967D3" stroke="#1967D3" stroke-width="2"/>
<rect x="1" y="-1" width="30" height="30" rx="15" transform="matrix(1 0 0 -1 2 30)" fill="white" stroke="#1967D3" stroke-width="2"/>
<path d="M25.5 11.0175C25.5025 10.8958 25.4942 9.79667 24.4167 8.73834C23.3559 7.69667 22.2859 7.66667 22.1667 7.66667H13.83C13.6309 7.66667 12.5859 7.71917 11.5734 8.75167C10.53 9.81501 10.5 10.8825 10.5 11V13.5H9.66669V16H10.5V21C10.5 21.6117 10.8384 22.1442 11.3334 22.4342V23.5C11.3334 23.721 11.4212 23.933 11.5774 24.0893C11.7337 24.2455 11.9457 24.3333 12.1667 24.3333H13C13.221 24.3333 13.433 24.2455 13.5893 24.0893C13.7456 23.933 13.8334 23.721 13.8334 23.5V22.6667H22.1667V23.5C22.1667 23.721 22.2545 23.933 22.4108 24.0893C22.567 24.2455 22.779 24.3333 23 24.3333H23.8334C24.0544 24.3333 24.2663 24.2455 24.4226 24.0893C24.5789 23.933 24.6667 23.721 24.6667 23.5V22.4358C24.9195 22.2908 25.1297 22.0818 25.276 21.8297C25.4223 21.5776 25.4995 21.2915 25.5 21V16H26.3334V13.5H25.5V11.0175ZM13.4167 21C13.0851 20.9999 12.7671 20.868 12.5326 20.6335C12.2982 20.3989 12.1666 20.0808 12.1667 19.7492C12.1668 19.4175 12.2986 19.0995 12.5332 18.8651C12.7678 18.6307 13.0859 18.4991 13.4175 18.4992C13.7492 18.4993 14.0672 18.6311 14.3016 18.8657C14.536 19.1003 14.6676 19.4184 14.6675 19.75C14.6674 20.0816 14.5356 20.3996 14.301 20.6341C14.0664 20.8685 13.7483 21.0001 13.4167 21ZM22.5834 21C22.2517 20.9999 21.9337 20.868 21.6993 20.6335C21.4649 20.3989 21.3332 20.0808 21.3334 19.7492C21.3335 19.4175 21.4653 19.0995 21.6999 18.8651C21.9345 18.6307 22.2526 18.4991 22.5842 18.4992C22.9158 18.4993 23.2338 18.6311 23.4682 18.8657C23.7027 19.1003 23.8343 19.4184 23.8342 19.75C23.8341 20.0816 23.7022 20.3996 23.4677 20.6341C23.2331 20.8685 22.915 21.0001 22.5834 21ZM23.8334 16.8333H12.1597V11.0007C12.1597 10.4484 12.6074 10.0007 13.1597 10.0007H22.8334C23.3856 10.0007 23.8334 10.4484 23.8334 11.0007V16.8333Z" fill="#1967D3"/>
</svg>