<svg width="36" height="40" viewBox="0 0 36 40" fill="none" xmlns="http://www.w3.org/2000/svg">
<path d="M19.4839 3.13352L28.3178 12.9091C29.4801 14.1952 28.5674 16.25 26.8339 16.25H9.16605C7.43259 16.25 6.51994 14.1952 7.68219 12.9091L16.5161 3.13352C17.3102 2.25478 18.6898 2.25478 19.4839 3.13352Z" fill="#1967D3" stroke="#1967D3" stroke-width="2"/>
<rect x="3" y="9" width="30" height="30" rx="15" fill="white" stroke="#1967D3" stroke-width="2"/>
<path d="M25.5 19.0175C25.5025 18.8958 25.4942 17.7967 24.4167 16.7383C23.3559 15.6967 22.2859 15.6667 22.1667 15.6667H13.83C13.6309 15.6667 12.5859 15.7192 11.5734 16.7517C10.53 17.815 10.5 18.8825 10.5 19V21.5H9.66669V24H10.5V29C10.5 29.6117 10.8384 30.1442 11.3334 30.4342V31.5C11.3334 31.721 11.4212 31.933 11.5774 32.0893C11.7337 32.2455 11.9457 32.3333 12.1667 32.3333H13C13.221 32.3333 13.433 32.2455 13.5893 32.0893C13.7456 31.933 13.8334 31.721 13.8334 31.5V30.6667H22.1667V31.5C22.1667 31.721 22.2545 31.933 22.4108 32.0893C22.567 32.2455 22.779 32.3333 23 32.3333H23.8334C24.0544 32.3333 24.2663 32.2455 24.4226 32.0893C24.5789 31.933 24.6667 31.721 24.6667 31.5V30.4358C24.9195 30.2908 25.1297 30.0818 25.276 29.8297C25.4223 29.5776 25.4995 29.2915 25.5 29V24H26.3334V21.5H25.5V19.0175ZM13.4167 29C13.0851 28.9999 12.7671 28.868 12.5326 28.6335C12.2982 28.3989 12.1666 28.0808 12.1667 27.7492C12.1668 27.4175 12.2986 27.0995 12.5332 26.8651C12.7678 26.6307 13.0859 26.4991 13.4175 26.4992C13.7492 26.4993 14.0672 26.6311 14.3016 26.8657C14.536 27.1003 14.6676 27.4184 14.6675 27.75C14.6674 28.0816 14.5356 28.3996 14.301 28.6341C14.0664 28.8685 13.7483 29.0001 13.4167 29ZM22.5834 29C22.2517 28.9999 21.9337 28.868 21.6993 28.6335C21.4649 28.3989 21.3332 28.0808 21.3334 27.7492C21.3335 27.4175 21.4653 27.0995 21.6999 26.8651C21.9345 26.6307 22.2526 26.4991 22.5842 26.4992C22.9158 26.4993 23.2338 26.6311 23.4682 26.8657C23.7027 27.1003 23.8343 27.4184 23.8342 27.75C23.8341 28.0816 23.7022 28.3996 23.4677 28.6341C23.2331 28.8685 22.915 29.0001 22.5834 29ZM23.8334 24.8333H12.1597V19.0007C12.1597 18.4484 12.6074 18.0007 13.1597 18.0007H22.8334C23.3856 18.0007 23.8334 18.4484 23.8334 19.0007V24.8333Z" fill="#1967D3"/>
</svg>