<svg xmlns="http://www.w3.org/2000/svg" xmlns:xlink="http://www.w3.org/1999/xlink" width="24" height="24" viewBox="0 0 24 24">
  <defs>
    <clipPath id="clip-path">
      <rect id="Rectangle_107" data-name="Rectangle 107" width="24" height="24" transform="translate(21 343)" fill="none" stroke="#707070" stroke-width="1"/>
    </clipPath>
  </defs>
  <g id="Mask_Group_19" data-name="Mask Group 19" transform="translate(-21 -343)" clip-path="url(#clip-path)">
    <g id="policy_black_24dp" transform="translate(24 346.824)">
      <g id="Group_132" data-name="Group 132">
        <rect id="Rectangle_97" data-name="Rectangle 97" width="18" height="18" fill="none"/>
      </g>
      <g id="Group_134" data-name="Group 134" transform="translate(2.208 0.736)">
        <g id="Group_133" data-name="Group 133">
          <path id="Path_67" data-name="Path 67" d="M16.249,3.944,9.624,1,3,3.944V8.36a9.16,9.16,0,0,0,6.624,8.833,8.339,8.339,0,0,0,4.328-2.731l-2.3-2.3A3.68,3.68,0,1,1,12.7,11.121l2.135,2.135A9.366,9.366,0,0,0,16.249,8.36Z" transform="translate(-3 -1)" fill="#707070"/>
          <circle id="Ellipse_196" data-name="Ellipse 196" cx="2" cy="2" r="2" transform="translate(4.792 6.264)" fill="#707070"/>
        </g>
      </g>
    </g>
  </g>
</svg>
