<?xml version="1.0" encoding="UTF-8" standalone="no"?>
<!DOCTYPE svg PUBLIC "-//W3C//DTD SVG 1.1//EN" "http://www.w3.org/Graphics/SVG/1.1/DTD/svg11.dtd">
<svg width="18" height="18" viewBox="0 0 16 16" version="1.1" xmlns="http://www.w3.org/2000/svg" xmlns:xlink="http://www.w3.org/1999/xlink" xml:space="preserve" xmlns:serif="http://www.serif.com/" style="fill-rule:evenodd;clip-rule:evenodd;">
    <g transform="matrix(0.492529,0,0,0.492529,0.0851816,0.124106)">
        <path d="M31,16C31,24.279 24.279,31 16,31C7.721,31 1,24.279 1,16C1,7.721 7.721,1 16,1C24.279,1 31,7.721 31,16Z" style="fill:white;stroke:rgb(25,103,211);stroke-width:2px;"/>
    </g>
    <g transform="matrix(0.492529,0,0,0.492529,0.0851816,0.124106)">
        <path d="M23.5,11.018C23.503,10.896 23.494,9.797 22.417,8.738C21.356,7.697 20.286,7.667 20.167,7.667L11.83,7.667C11.631,7.667 10.586,7.719 9.573,8.752C8.53,9.815 8.5,10.883 8.5,11L8.5,13.5L7.667,13.5L7.667,16L8.5,16L8.5,21C8.5,21.612 8.838,22.144 9.333,22.434L9.333,23.5C9.333,23.721 9.421,23.933 9.577,24.089C9.734,24.246 9.946,24.333 10.167,24.333L11,24.333C11.221,24.333 11.433,24.246 11.589,24.089C11.746,23.933 11.833,23.721 11.833,23.5L11.833,22.667L20.167,22.667L20.167,23.5C20.167,23.721 20.255,23.933 20.411,24.089C20.567,24.246 20.779,24.333 21,24.333L21.833,24.333C22.054,24.333 22.266,24.246 22.423,24.089C22.579,23.933 22.667,23.721 22.667,23.5L22.667,22.436C22.92,22.291 23.13,22.082 23.276,21.83C23.422,21.578 23.5,21.292 23.5,21L23.5,16L24.333,16L24.333,13.5L23.5,13.5L23.5,11.018ZM11.417,21C11.085,21 10.767,20.868 10.533,20.634C10.298,20.399 10.167,20.081 10.167,19.749C10.167,19.418 10.299,19.1 10.533,18.865C10.768,18.631 11.086,18.499 11.418,18.499C11.749,18.499 12.067,18.631 12.302,18.866C12.536,19.1 12.668,19.418 12.668,19.75C12.667,20.082 12.536,20.4 12.301,20.634C12.066,20.869 11.748,21 11.417,21ZM20.583,21C20.252,21 19.934,20.868 19.699,20.634C19.465,20.399 19.333,20.081 19.333,19.749C19.334,19.418 19.465,19.1 19.7,18.865C19.935,18.631 20.253,18.499 20.584,18.499C20.916,18.499 21.234,18.631 21.468,18.866C21.703,19.1 21.834,19.418 21.834,19.75C21.834,20.082 21.702,20.4 21.468,20.634C21.233,20.869 20.915,21 20.583,21ZM21.833,16.833L10.16,16.833L10.16,11.001C10.16,10.448 10.607,10.001 11.16,10.001L20.833,10.001C21.386,10.001 21.833,10.448 21.833,11.001L21.833,16.833Z" style="fill:rgb(25,103,211);fill-rule:nonzero;"/>
    </g>
</svg>
