<svg width="16" height="16" viewBox="0 0 16 16" fill="none" xmlns="http://www.w3.org/2000/svg">
<rect x="0.5" y="0.5" width="15" height="15" rx="3.5" fill="#1A73E9" stroke="#1967D3"/>
<path d="M12.5 5.0105C12.5015 4.9375 12.4965 4.278 11.85 3.643C11.2135 3.018 10.5715 3 10.5 3H5.498C5.3785 3 4.7515 3.0315 4.144 3.651C3.518 4.289 3.5 4.9295 3.5 5V6.5H3V8H3.5V11C3.5 11.367 3.703 11.6865 4 11.8605V12.5C4 12.6326 4.05268 12.7598 4.14645 12.8536C4.24021 12.9473 4.36739 13 4.5 13H5C5.13261 13 5.25979 12.9473 5.35355 12.8536C5.44732 12.7598 5.5 12.6326 5.5 12.5V12H10.5V12.5C10.5 12.6326 10.5527 12.7598 10.6464 12.8536C10.7402 12.9473 10.8674 13 11 13H11.5C11.6326 13 11.7598 12.9473 11.8536 12.8536C11.9473 12.7598 12 12.6326 12 12.5V11.8615C12.1517 11.7745 12.2778 11.6491 12.3656 11.4978C12.4533 11.3466 12.4997 11.1749 12.5 11V8H13V6.5H12.5V5.0105ZM5.25 11C5.05102 10.9999 4.86022 10.9208 4.71957 10.7801C4.57891 10.6393 4.49993 10.4485 4.5 10.2495C4.50007 10.0505 4.57917 9.85972 4.71992 9.71907C4.86067 9.57841 5.05152 9.49943 5.2505 9.4995C5.44948 9.49957 5.64028 9.57867 5.78093 9.71942C5.92159 9.86017 6.00057 10.051 6.0005 10.25C6.00043 10.449 5.92133 10.6398 5.78058 10.7804C5.63983 10.9211 5.44898 11.0001 5.25 11ZM10.75 11C10.551 10.9999 10.3602 10.9208 10.2196 10.7801C10.0789 10.6393 9.99993 10.4485 10 10.2495C10.0001 10.0505 10.0792 9.85972 10.2199 9.71907C10.3607 9.57841 10.5515 9.49943 10.7505 9.4995C10.9495 9.49957 11.1403 9.57867 11.2809 9.71942C11.4216 9.86017 11.5006 10.051 11.5005 10.25C11.5004 10.449 11.4213 10.6398 11.2806 10.7804C11.1398 10.9211 10.949 11.0001 10.75 11ZM11.5 8.5H4.4958V5.40039C4.4958 4.84811 4.94352 4.40039 5.4958 4.40039H10.5C11.0523 4.40039 11.5 4.84811 11.5 5.40039V8.5Z" fill="white"/>
</svg>
