<svg width="32" height="32" viewBox="0 0 32 32" fill="none" xmlns="http://www.w3.org/2000/svg">
<rect x="1" y="1" width="30" height="30" rx="15" fill="white" stroke="#1967D3" stroke-width="2"/>
<path d="M23.5 11.0175C23.5025 10.8958 23.4941 9.79666 22.4166 8.73833C21.3558 7.69666 20.2858 7.66666 20.1666 7.66666H11.83C11.6308 7.66666 10.5858 7.71916 9.57329 8.75166C8.52996 9.815 8.49996 10.8825 8.49996 11V13.5H7.66663V16H8.49996V21C8.49996 21.6117 8.83829 22.1442 9.33329 22.4342V23.5C9.33329 23.721 9.42109 23.933 9.57737 24.0893C9.73365 24.2455 9.94561 24.3333 10.1666 24.3333H11C11.221 24.3333 11.4329 24.2455 11.5892 24.0893C11.7455 23.933 11.8333 23.721 11.8333 23.5V22.6667H20.1666V23.5C20.1666 23.721 20.2544 23.933 20.4107 24.0893C20.567 24.2455 20.7789 24.3333 21 24.3333H21.8333C22.0543 24.3333 22.2663 24.2455 22.4225 24.0893C22.5788 23.933 22.6666 23.721 22.6666 23.5V22.4358C22.9195 22.2908 23.1296 22.0818 23.2759 21.8297C23.4222 21.5776 23.4995 21.2914 23.5 21V16H24.3333V13.5H23.5V11.0175ZM11.4166 21C11.085 20.9999 10.767 20.868 10.5326 20.6335C10.2981 20.3989 10.1665 20.0808 10.1666 19.7492C10.1667 19.4175 10.2986 19.0995 10.5332 18.8651C10.7677 18.6307 11.0858 18.4991 11.4175 18.4992C11.7491 18.4993 12.0671 18.6311 12.3015 18.8657C12.5359 19.1003 12.6676 19.4184 12.6675 19.75C12.6673 20.0816 12.5355 20.3996 12.3009 20.6341C12.0663 20.8685 11.7483 21.0001 11.4166 21ZM20.5833 21C20.2517 20.9999 19.9337 20.868 19.6992 20.6335C19.4648 20.3989 19.3332 20.0808 19.3333 19.7492C19.3334 19.4175 19.4652 19.0995 19.6998 18.8651C19.9344 18.6307 20.2525 18.4991 20.5841 18.4992C20.9158 18.4993 21.2338 18.6311 21.4682 18.8657C21.7026 19.1003 21.8342 19.4184 21.8341 19.75C21.834 20.0816 21.7022 20.3996 21.4676 20.6341C21.233 20.8685 20.9149 21.0001 20.5833 21ZM21.8333 16.8333H10.1596V11.0006C10.1596 10.4484 10.6073 10.0006 11.1596 10.0006H20.8333C21.3856 10.0006 21.8333 10.4484 21.8333 11.0006V16.8333Z" fill="#1967D3"/>
</svg>
